<?xml version="1.0" encoding="utf-8"?>
<!-- Generator: Adobe Illustrator 23.1.1, SVG Export Plug-In . SVG Version: 6.00 Build 0)  -->
<svg version="1.1" id="Layer_1" xmlns="http://www.w3.org/2000/svg" xmlns:xlink="http://www.w3.org/1999/xlink" x="0px" y="0px"
	 viewBox="0 0 540 53" style="enable-background:new 0 0 540 53;" xml:space="preserve">
<style type="text/css">
	.st0{fill:#1A478E;}
	.st1{fill:#FDB814;}
	.st2{fill:#FFFFFF;}
	.st3{fill:#F26222;}
</style>
<path class="st0" d="M530.8,37.6c0.1,1.7-1.2,3.2-2.9,3.3H13.1c-1.7-0.1-3-1.6-2.9-3.3V3.1c-0.1-1.7,1.2-3.2,2.9-3.3l0,0h514.7
	c1.7,0.1,3,1.6,2.9,3.3L530.8,37.6L530.8,37.6z"/>
<path class="st1" d="M39.9,21.9L38,11.2c-0.1-0.6-0.6-1-1.2-0.9c0,0,0,0-0.1,0l-11.2,2c-0.3,0.1-0.6,0.2-0.9,0.4
	c0,0-2.9,2.7-3.3,3.1c-0.5,0.5-0.7,1.2-0.6,1.8L23,29.9c0.1,0.6,0.7,1,1.3,0.9l0,0c0.5-0.1,11.5-2,12.1-2.1c0.7-0.2,1.3-0.7,1.6-1.3
	l1.7-3.7C40,23.1,40.1,22.5,39.9,21.9 M33.9,12.6c-0.6,0.4-1.3,0.6-2,0.7c-0.8,0.1-1.2,0-0.9-0.3c0.6-0.4,1.3-0.6,2-0.7
	C33.8,12.2,34.2,12.3,33.9,12.6 M32.1,12.1l-2.5,0.8h-1.8l2.5-0.8H32.1z M25.4,12.7l2.5-0.4L27.1,13l-2.5,0.4L25.4,12.7z M24.4,29.5
	l-0.5-2.7l2.7-0.5L27,29L24.4,29.5z M26.6,25.5l-1.8-2.1l0.9-2.6l1.8,2.1L26.6,25.5z M29.1,21.1c-0.9,0.1-1.7-0.4-1.8-1.3
	c-0.1-0.9,0.4-1.7,1.3-1.8c0.9-0.1,1.7,0.4,1.8,1.3C30.6,20.1,30,20.9,29.1,21.1 M32.7,19.2l-2.1-2.5l3.3-0.6L32.7,19.2z M33.8,14
	h-2.4l3.1-0.9L33.8,14z M37.7,12.4l0.1,2.8l-0.8-2L37.7,12.4z M36.8,14.9c0.2-0.2,0.4,0.2,0.5,1c0.2,0.6,0.2,1.2,0,1.8
	c-0.2,0.2-0.4-0.2-0.5-1C36.6,16.1,36.6,15.5,36.8,14.9 M36.8,18.1l0.7,1.8l0.1,2.7l-0.7-1.8L36.8,18.1z M37.6,26.7L37.2,24l0.5-1
	l0.5,2.6L37.6,26.7z"/>
<path class="st2" d="M518.5,14.4c0,1.2,1,2.2,2.2,2.2s2.2-1,2.2-2.2s-1-2.2-2.2-2.2l0,0C519.5,12.3,518.5,13.2,518.5,14.4
	 M518.9,14.4c0-1,0.8-1.7,1.7-1.7c1,0,1.7,0.8,1.7,1.7c0,1-0.8,1.7-1.7,1.7l0,0C519.7,16.2,518.9,15.4,518.9,14.4"/>
<path class="st3" d="M496.9,11.9L495,9.8l0.2-0.3l1.5-1.6c0.3-0.3,0.4-0.7,0.5-1.1c-0.1-0.8-0.7-1.4-1.5-1.4c-0.4,0-0.8,0.2-1.1,0.6
	l-1,1.4l-0.2,0.3l-0.2-0.3l-1-1.4c-0.3-0.4-0.7-0.6-1.2-0.6c-0.8,0-1.5,0.6-1.5,1.4c0,0.4,0.2,0.8,0.5,1.1l1.5,1.6l0.2,0.3l-1.9,2.1
	c-0.2,0.3-0.4,0.6-0.4,1c0,0.8,0.5,1.4,1.3,1.4c0.1,0,0.1,0,0.2,0c0.5,0,1-0.2,1.2-0.6l1.3-1.6l1.3,1.6c0.3,0.4,0.7,0.7,1.2,0.6
	c0.7,0.1,1.4-0.5,1.4-1.3c0-0.1,0-0.1,0-0.2C497.3,12.5,497.2,12.1,496.9,11.9"/>
<path class="st2" d="M498.1,26c-0.9,0-1.9,0-2.8-0.1c-0.3-0.1-0.4-0.1-0.5-0.3c-0.1-0.2-0.1-0.5-0.1-0.7v-0.1v-0.2l0,0
	c0,0,0-0.2,0.1-0.6l0.1-0.6l0.4-1.9c0.1-0.5,0.2-1,0.4-1.5c0.1-0.3,0.2-0.6,0.5-0.9c0.2-0.2,0.4-0.3,0.7-0.4
	c0.9-0.1,1.9-0.1,2.8-0.1s1.9,0,2.8,0.1c0.2,0,0.4,0.2,0.5,0.3c0.1,0.3,0.2,0.7,0.1,1c-0.1,0.4-0.2,0.8-0.5,1.1
	c-0.2,0.2-0.4,0.3-0.7,0.4c-0.4,0.1-2.2,0.1-2.9,0.1h-0.5c-0.7,0.1-1.3,0.7-1.4,1.5l-0.1,0.7h1.7c0.7,0,2.8,0,3.5-0.1
	c0.9,0,1.7-0.4,2.3-1c0.7-0.7,1.1-1.5,1.2-2.5v-0.1l0,0c0.2-0.9,0.1-1.7-0.3-2.5c-0.4-0.7-1.1-1.2-1.9-1.1c-0.7,0-2.8-0.1-3.5-0.1
	s-2.7,0-3.5,0.1c-0.9,0-1.7,0.4-2.2,1.1c-0.7,0.7-1.1,1.6-1.3,2.6l-0.1,0.5c-0.1,0.5-0.2,0.8-0.3,1.5s-0.2,1.1-0.3,1.5l-0.1,0.6
	c-0.2,0.9-0.1,1.9,0.4,2.7c0.4,0.7,1.1,1.1,1.9,1.1c0.7,0,6.7,0.1,7.4,0.1c1.2,0,1.5-1.5,1.6-2.3L498.1,26z"/>
<path class="st2" d="M482.6,16.5L482.6,16.5c-2.4,0.1-3,2.5-3.1,3c-0.2,0.7-0.2,1.5,0.1,2.2c0.3,0.6,0.9,1,1.6,1.1
	c0.6,0.1,2.2,0.3,3.7,0.4h0.1c1,0.1,2.1,0.2,2.3,0.2s0.5,0.2,0.6,0.3c0.1,0.2,0.1,0.3,0,0.5c-0.2,0.9-0.6,1.3-1.3,1.4
	c-1,0.1-2.5,0.1-2.9,0.1s-2.7-0.1-3.6-0.1c-0.3,0-0.6,0.1-0.9,0.4s-0.5,0.8-0.6,1.2l-0.1,0.6l0.5,0.1c0.8,0.1,3.8,0.2,4.4,0.2
	c0.8,0,1.3,0,2.1,0h1.5c1.7-0.1,3-1.4,3.3-3l0.2-0.7l0,0c0.1-0.3,0.1-0.5,0.1-0.8c0-0.5,0-1-0.2-1.4c-0.4-0.7-1.1-1.1-1.9-1.1
	c-1.6-0.2-5.4-0.6-5.8-0.6c-0.2,0-0.5-0.1-0.6-0.3c0-0.1,0-0.1,0-0.2v-0.1c0.1-0.6,0.3-0.9,1-1s2.5-0.1,3.3-0.1h1.3h1.9
	c0.8-0.1,1.4-0.7,1.4-1.5l0.1-0.7h-0.5c-0.7,0-2.9-0.1-3.9-0.1S484.5,16.5,482.6,16.5"/>
<path class="st2" d="M463.5,12.9h-0.1c-1.4,0-2.3,0.9-2.6,2.5l-1.3,6.8c-0.1,0.6-0.4,1.9-0.5,2.4c-0.1,0.3-0.2,0.6-0.5,0.9
	c-0.2,0.2-0.4,0.3-0.7,0.4c-0.9,0.1-1.7,0.1-2.6,0.1c-0.8,0-1.7,0-2.5-0.1c-0.3-0.1-0.4-0.1-0.5-0.3c-0.1-0.2-0.1-0.5-0.1-0.8
	c0-0.5,0.3-1.9,0.4-2.4s0.4-1.9,0.5-2.4c0.1-0.3,0.2-0.6,0.5-0.9c0.2-0.2,0.4-0.3,0.7-0.4c0.9-0.1,1.7-0.1,2.6-0.1h0.3
	c0.3,0,0.6-0.1,0.8-0.4c0.3-0.3,0.5-0.7,0.5-1.1l0.1-0.7l-0.8-0.1c-0.2,0-0.4,0-0.7,0c-0.7,0-2.5,0-3.2,0.1c-0.9,0-1.7,0.4-2.2,1.1
	c-0.7,0.7-1.1,1.6-1.3,2.6l-0.1,0.6c-0.1,0.5-0.2,0.8-0.3,1.5s-0.2,1-0.2,1.5l-0.1,0.6c-0.2,0.9-0.1,1.9,0.4,2.7
	c0.4,0.7,1.1,1.1,1.9,1.1c0.7,0,2.5,0.1,3.2,0.1s2.5,0,3.2-0.1c0.9,0,1.7-0.4,2.2-1.1c0.7-0.7,1.1-1.6,1.3-2.6l0.1-0.6
	c0.1-0.5,0.2-0.8,0.3-1.5l1.9-9.5L463.5,12.9z"/>
<path class="st2" d="M478.1,12.9L478.1,12.9c-1.4,0-2.4,0.9-2.7,2.5l-1.4,6.8c-0.1,0.6-0.4,1.9-0.5,2.4c-0.1,0.3-0.2,0.6-0.5,0.9
	c-0.2,0.2-0.4,0.3-0.7,0.4c-0.9,0.1-1.7,0.1-2.6,0.1c-0.8,0-1.7,0-2.5-0.1c-0.3-0.1-0.4-0.1-0.5-0.3c-0.1-0.2-0.1-0.5-0.1-0.8
	c0-0.5,0.3-1.9,0.4-2.4s0.4-1.9,0.5-2.4c0.1-0.3,0.2-0.6,0.5-0.9c0.2-0.2,0.4-0.3,0.7-0.4c0.9-0.1,1.7-0.1,2.6-0.1h0.2
	c0.3,0,0.6-0.1,0.8-0.4c0.3-0.3,0.5-0.7,0.5-1.1l0.1-0.7l-0.8-0.1c-0.2,0-0.5,0-0.7,0c-0.7,0-2.5,0-3.2,0.1c-0.9,0-1.7,0.4-2.2,1.1
	c-0.7,0.7-1.1,1.6-1.3,2.6l-0.1,0.6c-0.1,0.5-0.2,0.8-0.3,1.5s-0.2,1-0.3,1.5l-0.1,0.6c-0.2,0.9-0.1,1.9,0.4,2.7
	c0.4,0.7,1.1,1.1,1.9,1.1c0.7,0,2.5,0.1,3.2,0.1s2.5,0,3.2-0.1c0.9,0,1.7-0.4,2.2-1.1c0.7-0.7,1.1-1.6,1.3-2.6l0.1-0.6
	c0.1-0.5,0.2-0.8,0.3-1.5l1.9-9.5L478.1,12.9z"/>
<path class="st2" d="M436.5,25.9c-0.3-0.1-0.4-0.1-0.5-0.3c-0.1-0.2-0.1-0.5-0.1-0.8c0-0.5,0.5-2.9,0.7-4c0.1-0.7,0.7-3.8,0.9-4.3
	c0.1-0.3,0.2-0.6,0.5-0.9c0.2-0.2,0.4-0.3,0.7-0.4c0.4-0.1,2.7-0.1,3.3-0.1c0.8,0,2.9,0,3.3,0.1s0.4,0.1,0.5,0.3s0.1,0.5,0.1,0.8
	c0,0.5-0.5,3.1-0.8,4.3c-0.1,0.7-0.7,3.5-0.9,4c-0.1,0.3-0.2,0.6-0.5,0.9c-0.2,0.2-0.4,0.3-0.7,0.4c-0.4,0.1-2.7,0.1-3.3,0.1
	C439,25.9,436.9,25.9,436.5,25.9 M438.4,13c-0.9,0-1.7,0.4-2.2,1.1c-0.7,0.7-1.1,1.6-1.3,2.6l-0.1,0.6c-0.1,0.5-0.6,2.8-0.7,3.4
	s-0.5,2.6-0.6,3.1l-0.1,0.6c-0.2,0.9-0.1,1.9,0.4,2.7c0.4,0.7,1.1,1.2,1.9,1.2c0.7,0,3.2,0.1,3.9,0.1s3.2,0,3.9-0.1
	c0.9,0,1.7-0.4,2.2-1.1c0.7-0.7,1.2-1.6,1.3-2.6l0.1-0.6c0.1-0.5,0.5-2.4,0.6-3.1s0.5-2.9,0.6-3.4l0.1-0.6c0.2-0.9,0.1-1.9-0.4-2.7
	c-0.4-0.7-1.1-1.1-1.9-1.1c-0.7-0.1-3.2-0.1-3.9-0.1S439.1,12.9,438.4,13"/>
<path class="st2" d="M511.8,12.9h-0.4c-0.7,0-1.4,0.3-1.9,0.9c-0.3,0.4-0.6,0.8-0.8,1.3c-0.1,0.2-0.1,0.3-0.1,0.5l-0.2,1.2l-1,5.1
	c-0.2,1-0.3,1.6-0.4,2.5c-0.2,0.9-0.1,1.9,0.4,2.7c0.3,0.7,1.1,1.2,1.9,1.2c0.7,0,3.1,0.1,3.8,0.1h0.7c0.7,0,1.2-0.7,1.4-1.6v-0.2
	l0.1-0.5h-1.9c-1,0-2.9,0-3.2-0.1s-0.4-0.1-0.5-0.3c-0.1-0.2-0.1-0.4-0.1-0.7v-0.1c0-0.5,0.4-2.2,0.5-2.8l0.6-3.3h4.6l0.4-2.2H511
	L511.8,12.9z"/>
<g>
	<path d="M261.3,49.3h-0.9l0.7-3.4c0.1-0.4,0.2-0.8,0.3-1.3c-0.1,0.1-0.3,0.3-0.5,0.4l-0.7,0.5l-0.4-0.7l2-1.2h0.8L261.3,49.3z"/>
	<path d="M266.1,43.5c0.5,0,0.8,0.1,1.1,0.3s0.4,0.5,0.4,0.9c0,0.3-0.1,0.6-0.3,0.9s-0.5,0.5-1,0.6c0.3,0.2,0.5,0.4,0.7,0.6
		s0.2,0.5,0.2,0.8c0,0.3-0.1,0.6-0.2,0.8s-0.4,0.4-0.7,0.6s-0.6,0.2-1.1,0.2c-0.5,0-0.9-0.1-1.2-0.4s-0.4-0.6-0.4-1
		c0-0.8,0.5-1.3,1.4-1.7c-0.2-0.2-0.4-0.4-0.5-0.6s-0.2-0.4-0.2-0.6c0-0.5,0.2-0.8,0.5-1.1S265.6,43.5,266.1,43.5z M265.6,46.6
		c-0.4,0.1-0.7,0.3-0.8,0.5s-0.3,0.4-0.3,0.7c0,0.2,0.1,0.4,0.2,0.6s0.4,0.2,0.6,0.2c0.3,0,0.5-0.1,0.7-0.2s0.3-0.4,0.3-0.7
		c0-0.2-0.1-0.4-0.2-0.6S265.8,46.8,265.6,46.6z M266,44.2c-0.2,0-0.4,0.1-0.6,0.2s-0.2,0.3-0.2,0.6c0,0.2,0.1,0.4,0.2,0.5
		s0.2,0.3,0.4,0.4c0.3-0.1,0.5-0.2,0.7-0.4s0.2-0.4,0.2-0.6c0-0.2-0.1-0.4-0.2-0.5S266.2,44.2,266,44.2z"/>
	<path d="M269.6,46.8h-1.5v-0.7h1.5v-1.5h0.7v1.5h1.5v0.7h-1.5v1.5h-0.7V46.8z"/>
	<path d="M274,43.2h0.7v7.9H274V43.2z"/>
	<path d="M280.1,47.6c0,0.5-0.2,1-0.6,1.3c-0.4,0.3-0.9,0.5-1.6,0.5c-0.5,0-1-0.1-1.4-0.3v-0.9c0.5,0.3,0.9,0.4,1.4,0.4
		c0.4,0,0.6-0.1,0.8-0.2c0.2-0.2,0.3-0.4,0.3-0.6c0-0.2-0.1-0.3-0.2-0.5c-0.1-0.1-0.3-0.3-0.7-0.5c-0.3-0.2-0.5-0.3-0.6-0.5
		c-0.1-0.1-0.2-0.3-0.3-0.5c-0.1-0.2-0.1-0.4-0.1-0.6c0-0.3,0.1-0.6,0.2-0.9s0.4-0.5,0.7-0.6s0.6-0.2,1-0.2c0.5,0,1,0.1,1.5,0.4
		l-0.3,0.7c-0.4-0.2-0.8-0.3-1.2-0.3c-0.3,0-0.5,0.1-0.7,0.2s-0.3,0.4-0.3,0.6c0,0.1,0,0.2,0.1,0.3s0.1,0.2,0.2,0.3s0.3,0.2,0.5,0.4
		c0.4,0.3,0.7,0.5,0.8,0.7C280,47,280.1,47.3,280.1,47.6z"/>
	<path d="M282.4,48.6c0.2,0,0.4,0,0.6-0.1v0.7c-0.1,0-0.2,0.1-0.4,0.1s-0.3,0.1-0.5,0.1c-0.7,0-1.1-0.3-1.1-1c0-0.1,0-0.3,0.1-0.5
		l0.5-2.2H281l0.1-0.4l0.7-0.3l0.5-0.9h0.6l-0.2,1h1.1l-0.2,0.7h-1.1l-0.5,2.2c0,0.1-0.1,0.3-0.1,0.4c0,0.1,0,0.2,0.1,0.3
		C282.1,48.6,282.2,48.6,282.4,48.6z"/>
	<path d="M287.8,46.6c0,0.5-0.1,1-0.3,1.4c-0.2,0.4-0.5,0.8-0.8,1s-0.7,0.3-1.1,0.3c-0.5,0-0.9-0.1-1.2-0.4
		c-0.3-0.3-0.4-0.7-0.4-1.2c0-0.5,0.1-1,0.3-1.4c0.2-0.4,0.4-0.8,0.8-1s0.7-0.4,1.2-0.4c0.5,0,0.9,0.2,1.2,0.5
		C287.6,45.6,287.8,46,287.8,46.6z M286.8,46.5c0-0.3-0.1-0.5-0.2-0.7c-0.1-0.2-0.3-0.2-0.5-0.2c-0.2,0-0.5,0.1-0.7,0.3
		s-0.3,0.4-0.4,0.8s-0.2,0.7-0.2,1c0,0.3,0.1,0.5,0.2,0.7s0.3,0.2,0.6,0.2c0.2,0,0.4-0.1,0.6-0.3s0.3-0.4,0.4-0.7
		C286.8,47.3,286.8,46.9,286.8,46.5z"/>
	<path d="M290.4,49.3c-0.5,0-0.8-0.2-1.1-0.7h0c0,0.3-0.1,0.5-0.1,0.7l-0.4,1.8h-0.9l1.3-6.2h0.7l-0.1,0.7h0
		c0.4-0.5,0.9-0.8,1.3-0.8c0.4,0,0.7,0.1,0.9,0.4s0.3,0.6,0.3,1.1c0,0.5-0.1,1-0.3,1.5c-0.2,0.5-0.4,0.8-0.7,1.1
		C291.1,49.2,290.8,49.3,290.4,49.3z M290.9,45.6c-0.2,0-0.4,0.1-0.6,0.3c-0.2,0.2-0.4,0.5-0.5,0.8c-0.1,0.3-0.2,0.7-0.2,1.1
		c0,0.2,0.1,0.4,0.2,0.6s0.3,0.2,0.5,0.2c0.2,0,0.4-0.1,0.6-0.3c0.2-0.2,0.3-0.5,0.5-0.8c0.1-0.3,0.2-0.7,0.2-1.1
		C291.5,45.9,291.3,45.6,290.9,45.6z"/>
	<path d="M295.9,47.9c0,0.5-0.2,0.8-0.5,1c-0.3,0.2-0.7,0.4-1.3,0.4c-0.5,0-0.9-0.1-1.3-0.3v-0.8c0.4,0.2,0.8,0.4,1.2,0.4
		c0.3,0,0.5-0.1,0.6-0.2s0.2-0.2,0.2-0.4c0-0.1,0-0.2-0.1-0.3s-0.3-0.2-0.6-0.4c-0.3-0.2-0.6-0.4-0.7-0.5c-0.1-0.2-0.2-0.4-0.2-0.6
		c0-0.4,0.1-0.7,0.4-0.9c0.3-0.2,0.7-0.3,1.1-0.3c0.5,0,1,0.1,1.4,0.3l-0.3,0.7c-0.4-0.2-0.7-0.3-1-0.3c-0.2,0-0.3,0-0.5,0.1
		c-0.1,0.1-0.2,0.2-0.2,0.4c0,0.1,0,0.2,0.1,0.3s0.3,0.2,0.5,0.4c0.3,0.2,0.5,0.3,0.6,0.4c0.1,0.1,0.2,0.2,0.3,0.4
		C295.8,47.6,295.9,47.8,295.9,47.9z"/>
	<path d="M298.7,49.3c-0.5,0-0.8-0.2-1.1-0.7h0c0,0.3-0.1,0.5-0.1,0.7l-0.4,1.8h-0.9l1.3-6.2h0.7l-0.1,0.7h0
		c0.4-0.5,0.9-0.8,1.3-0.8c0.4,0,0.7,0.1,0.9,0.4s0.3,0.6,0.3,1.1c0,0.5-0.1,1-0.3,1.5c-0.2,0.5-0.4,0.8-0.7,1.1
		C299.4,49.2,299,49.3,298.7,49.3z M299.2,45.6c-0.2,0-0.4,0.1-0.6,0.3c-0.2,0.2-0.4,0.5-0.5,0.8c-0.1,0.3-0.2,0.7-0.2,1.1
		c0,0.2,0.1,0.4,0.2,0.6s0.3,0.2,0.5,0.2c0.2,0,0.4-0.1,0.6-0.3c0.2-0.2,0.3-0.5,0.5-0.8c0.1-0.3,0.2-0.7,0.2-1.1
		C299.8,45.9,299.6,45.6,299.2,45.6z"/>
	<path d="M302.2,49.3h-0.9l0.9-4.3h0.9L302.2,49.3z M302.4,43.9c0-0.2,0.1-0.3,0.2-0.4s0.2-0.2,0.4-0.2c0.1,0,0.2,0,0.3,0.1
		s0.1,0.2,0.1,0.3c0,0.2-0.1,0.3-0.2,0.4c-0.1,0.1-0.2,0.2-0.4,0.2c-0.1,0-0.3,0-0.3-0.1C302.4,44.1,302.4,44,302.4,43.9z"/>
	<path d="M304.4,49.3h-0.9l1.3-6.1h0.9L304.4,49.3z"/>
	<path d="M306.6,49.3h-0.9l1.3-6.1h0.9L306.6,49.3z"/>
	<path d="M309.7,49.3c-0.5,0-0.9-0.1-1.2-0.4c-0.3-0.3-0.4-0.7-0.4-1.2c0-0.5,0.1-1,0.3-1.4c0.2-0.4,0.5-0.8,0.8-1
		c0.3-0.2,0.7-0.4,1.2-0.4c0.4,0,0.7,0.1,1,0.3c0.2,0.2,0.3,0.5,0.3,0.8c0,0.5-0.2,0.8-0.7,1.1s-1.1,0.4-1.9,0.4H309l0,0.1v0.1
		c0,0.3,0.1,0.5,0.2,0.7c0.1,0.2,0.4,0.2,0.7,0.2c0.2,0,0.4,0,0.6-0.1c0.2,0,0.4-0.1,0.7-0.3V49c-0.2,0.1-0.5,0.2-0.7,0.2
		C310.2,49.3,310,49.3,309.7,49.3z M310.3,45.6c-0.2,0-0.5,0.1-0.7,0.3c-0.2,0.2-0.4,0.5-0.5,0.9h0.1c0.5,0,0.9-0.1,1.1-0.2
		c0.3-0.1,0.4-0.3,0.4-0.6c0-0.1,0-0.2-0.1-0.3C310.6,45.6,310.5,45.6,310.3,45.6z"/>
	<path d="M313.7,48.6c0.2,0,0.4,0,0.6-0.1v0.7c-0.1,0-0.2,0.1-0.4,0.1s-0.3,0.1-0.5,0.1c-0.7,0-1.1-0.3-1.1-1c0-0.1,0-0.3,0.1-0.5
		l0.5-2.2h-0.6l0.1-0.4l0.7-0.3l0.5-0.9h0.6l-0.2,1h1.1l-0.2,0.7h-1.1l-0.5,2.2c0,0.1-0.1,0.3-0.1,0.4c0,0.1,0,0.2,0.1,0.3
		C313.4,48.6,313.5,48.6,313.7,48.6z"/>
	<path d="M315,48.9c0-0.2,0.1-0.4,0.2-0.5c0.1-0.1,0.3-0.2,0.5-0.2c0.1,0,0.3,0,0.3,0.1c0.1,0.1,0.1,0.2,0.1,0.4
		c0,0.2-0.1,0.4-0.2,0.5c-0.1,0.1-0.3,0.2-0.5,0.2c-0.2,0-0.3,0-0.4-0.1S315,49,315,48.9z"/>
	<path d="M319.4,44.9c0.5,0,0.8,0.2,1,0.7h0c0-0.4,0.1-0.7,0.1-1l0.3-1.4h0.9l-1.3,6.1h-0.7l0.1-0.7h0c-0.2,0.3-0.5,0.5-0.7,0.6
		c-0.2,0.1-0.4,0.2-0.7,0.2c-0.4,0-0.7-0.1-0.9-0.4s-0.3-0.6-0.3-1.1c0-0.5,0.1-1,0.3-1.5c0.2-0.5,0.4-0.8,0.7-1.1
		S319,44.9,319.4,44.9z M318.9,48.6c0.2,0,0.4-0.1,0.6-0.3c0.2-0.2,0.4-0.5,0.5-0.8c0.1-0.3,0.2-0.7,0.2-1c0-0.2-0.1-0.4-0.2-0.6
		s-0.3-0.2-0.5-0.2c-0.2,0-0.4,0.1-0.6,0.3c-0.2,0.2-0.3,0.5-0.5,0.8c-0.1,0.3-0.2,0.7-0.2,1.1C318.3,48.3,318.5,48.6,318.9,48.6z"
		/>
	<path d="M325.1,44.9h1.1l-1.9,1.9l1.1,2.4h-1l-0.8-1.8l-0.5,0.4l-0.3,1.5h-0.9l1.3-6.1h0.9c-0.4,1.6-0.6,2.6-0.6,2.8
		s-0.1,0.6-0.2,0.9h0L325.1,44.9z"/>
	<path d="M327.8,43.2h0.7v7.9h-0.7V43.2z"/>
	<path d="M335.8,43.6l-0.8,3.7c-0.1,0.7-0.4,1.2-0.8,1.5s-0.9,0.5-1.6,0.5c-0.6,0-1-0.1-1.3-0.4s-0.5-0.7-0.5-1.2
		c0-0.2,0-0.4,0.1-0.7l0.8-3.5h0.9l-0.8,3.5c-0.1,0.2-0.1,0.4-0.1,0.6c0,0.3,0.1,0.5,0.2,0.6s0.4,0.2,0.7,0.2c0.4,0,0.7-0.1,0.9-0.3
		s0.4-0.5,0.5-1l0.8-3.7H335.8z"/>
	<path d="M338.2,44.9c0.5,0,0.8,0.2,1,0.7h0c0-0.4,0.1-0.7,0.1-1l0.3-1.4h0.9l-1.3,6.1h-0.7l0.1-0.7h0c-0.2,0.3-0.5,0.5-0.7,0.6
		s-0.4,0.2-0.7,0.2c-0.4,0-0.7-0.1-0.9-0.4s-0.3-0.6-0.3-1.1c0-0.5,0.1-1,0.3-1.5s0.4-0.8,0.7-1.1S337.8,44.9,338.2,44.9z
		 M337.7,48.6c0.2,0,0.4-0.1,0.6-0.3s0.4-0.5,0.5-0.8s0.2-0.7,0.2-1c0-0.2-0.1-0.4-0.2-0.6s-0.3-0.2-0.5-0.2c-0.2,0-0.4,0.1-0.6,0.3
		s-0.3,0.5-0.5,0.8s-0.2,0.7-0.2,1.1C337.1,48.3,337.3,48.6,337.7,48.6z"/>
	<path d="M342.7,49.3c-0.3,0-0.5-0.1-0.7-0.2s-0.3-0.3-0.4-0.5h0l-0.2,0.6h-0.7l1.3-6.1h0.9l-0.3,1.3c0,0.2-0.1,0.4-0.1,0.6
		s-0.1,0.4-0.2,0.5h0c0.2-0.3,0.4-0.5,0.6-0.6s0.4-0.2,0.6-0.2c0.4,0,0.7,0.1,0.9,0.4s0.3,0.6,0.3,1.1c0,0.5-0.1,1-0.3,1.5
		s-0.4,0.8-0.7,1.1S343.1,49.3,342.7,49.3z M343.2,45.6c-0.2,0-0.4,0.1-0.6,0.3s-0.4,0.5-0.5,0.8s-0.2,0.7-0.2,1.1
		c0,0.2,0.1,0.4,0.2,0.6s0.3,0.2,0.5,0.2s0.4-0.1,0.6-0.3s0.3-0.5,0.5-0.8s0.2-0.7,0.2-1.1C343.8,45.9,343.6,45.6,343.2,45.6z"/>
	<path d="M345.5,44.9h0.9l0.2,2.1c0,0.2,0,0.4,0.1,0.7s0,0.5,0,0.7h0c0.2-0.6,0.4-1,0.5-1.2l1.1-2.2h1l-2.7,5
		c-0.2,0.4-0.5,0.7-0.8,0.9s-0.6,0.3-1,0.3c-0.2,0-0.4,0-0.6-0.1v-0.7c0.2,0,0.4,0.1,0.5,0.1c0.2,0,0.4-0.1,0.5-0.2s0.3-0.3,0.5-0.6
		l0.2-0.4L345.5,44.9z"/>
	<path d="M351.5,44.9c0.5,0,0.8,0.2,1,0.7h0c0-0.4,0.1-0.7,0.1-1l0.3-1.4h0.9l-1.3,6.1h-0.7l0.1-0.7h0c-0.2,0.3-0.5,0.5-0.7,0.6
		s-0.4,0.2-0.7,0.2c-0.4,0-0.7-0.1-0.9-0.4s-0.3-0.6-0.3-1.1c0-0.5,0.1-1,0.3-1.5s0.4-0.8,0.7-1.1S351.1,44.9,351.5,44.9z M351,48.6
		c0.2,0,0.4-0.1,0.6-0.3s0.4-0.5,0.5-0.8s0.2-0.7,0.2-1c0-0.2-0.1-0.4-0.2-0.6s-0.3-0.2-0.5-0.2c-0.2,0-0.4,0.1-0.6,0.3
		s-0.3,0.5-0.5,0.8s-0.2,0.7-0.2,1.1C350.3,48.3,350.5,48.6,351,48.6z"/>
	<path d="M355.7,49.3c-0.5,0-0.9-0.1-1.2-0.4s-0.4-0.7-0.4-1.2c0-0.5,0.1-1,0.3-1.4s0.5-0.8,0.8-1s0.7-0.4,1.2-0.4
		c0.4,0,0.7,0.1,1,0.3s0.3,0.5,0.3,0.8c0,0.5-0.2,0.8-0.7,1.1s-1.1,0.4-1.9,0.4H355l0,0.1v0.1c0,0.3,0.1,0.5,0.2,0.7
		s0.4,0.2,0.7,0.2c0.2,0,0.4,0,0.6-0.1s0.4-0.1,0.7-0.3V49c-0.2,0.1-0.5,0.2-0.7,0.2S356,49.3,355.7,49.3z M356.3,45.6
		c-0.2,0-0.5,0.1-0.7,0.3s-0.4,0.5-0.5,0.9h0.1c0.5,0,0.9-0.1,1.1-0.2s0.4-0.3,0.4-0.6c0-0.1,0-0.2-0.1-0.3S356.5,45.6,356.3,45.6z"
		/>
	<path d="M361,47.9c0,0.5-0.2,0.8-0.5,1s-0.7,0.4-1.3,0.4c-0.5,0-0.9-0.1-1.3-0.3v-0.8c0.4,0.2,0.8,0.4,1.2,0.4
		c0.3,0,0.5-0.1,0.6-0.2s0.2-0.2,0.2-0.4c0-0.1,0-0.2-0.1-0.3s-0.3-0.2-0.6-0.4c-0.3-0.2-0.6-0.4-0.7-0.5s-0.2-0.4-0.2-0.6
		c0-0.4,0.1-0.7,0.4-0.9s0.7-0.3,1.1-0.3c0.5,0,1,0.1,1.4,0.3l-0.3,0.7c-0.4-0.2-0.7-0.3-1-0.3c-0.2,0-0.3,0-0.5,0.1
		s-0.2,0.2-0.2,0.4c0,0.1,0,0.2,0.1,0.3s0.3,0.2,0.5,0.4c0.3,0.2,0.5,0.3,0.6,0.4s0.2,0.2,0.3,0.4S361,47.8,361,47.9z"/>
	<path d="M365.2,49.3c-0.4,0-0.7-0.1-0.9-0.4s-0.3-0.6-0.3-1.1c0-0.5,0.1-1,0.3-1.5s0.4-0.8,0.7-1.1s0.7-0.4,1-0.4
		c0.3,0,0.5,0.1,0.7,0.2s0.3,0.3,0.4,0.5h0l0.2-0.6h0.7l-0.9,4.3h-0.7l0.1-0.7h0C366.1,49.1,365.7,49.3,365.2,49.3z M365.5,48.6
		c0.2,0,0.4-0.1,0.6-0.3s0.4-0.5,0.5-0.8s0.2-0.7,0.2-1.1c0-0.2-0.1-0.4-0.2-0.6s-0.3-0.2-0.5-0.2c-0.2,0-0.4,0.1-0.6,0.3
		s-0.4,0.5-0.5,0.8s-0.2,0.7-0.2,1.1c0,0.3,0.1,0.5,0.2,0.6S365.3,48.6,365.5,48.6z"/>
	<path d="M367.9,51.2c-0.2,0-0.4,0-0.6-0.1v-0.7c0.2,0.1,0.3,0.1,0.4,0.1c0.3,0,0.6-0.3,0.7-0.8l0.8-4h-0.7l0.1-0.4l0.8-0.3l0.1-0.4
		c0.1-0.5,0.3-0.9,0.5-1.1s0.6-0.3,1-0.3c0.3,0,0.6,0.1,0.8,0.2l-0.2,0.7c-0.2-0.1-0.4-0.1-0.5-0.1c-0.2,0-0.3,0.1-0.4,0.2
		s-0.2,0.3-0.2,0.6l-0.1,0.3h0.9l-0.1,0.7h-0.9l-0.9,4.1c-0.1,0.5-0.3,0.9-0.5,1.1S368.3,51.2,367.9,51.2z"/>
	<path d="M378.2,45.8c0,0.7-0.1,1.3-0.4,1.8s-0.6,0.9-1.1,1.2s-1.1,0.4-1.8,0.4h-1.6l1.2-5.7h1.4c0.7,0,1.2,0.2,1.6,0.6
		S378.2,45.1,378.2,45.8z M374.9,48.5c0.5,0,0.9-0.1,1.2-0.3s0.6-0.5,0.8-0.9s0.3-0.9,0.3-1.4c0-0.5-0.1-0.8-0.3-1.1s-0.6-0.4-1-0.4
		h-0.6l-0.9,4.1H374.9z"/>
	<path d="M380,49.3c-0.4,0-0.7-0.1-0.9-0.4s-0.3-0.6-0.3-1.1c0-0.5,0.1-1,0.3-1.5s0.4-0.8,0.7-1.1s0.7-0.4,1-0.4
		c0.3,0,0.5,0.1,0.7,0.2s0.3,0.3,0.4,0.5h0l0.2-0.6h0.7l-0.9,4.3h-0.7l0.1-0.7h0C380.9,49.1,380.5,49.3,380,49.3z M380.3,48.6
		c0.2,0,0.4-0.1,0.6-0.3s0.4-0.5,0.5-0.8s0.2-0.7,0.2-1.1c0-0.2-0.1-0.4-0.2-0.6s-0.3-0.2-0.5-0.2c-0.2,0-0.4,0.1-0.6,0.3
		s-0.4,0.5-0.5,0.8s-0.2,0.7-0.2,1.1c0,0.3,0.1,0.5,0.2,0.6S380.1,48.6,380.3,48.6z"/>
	<path d="M385.8,49.3l0.6-2.6c0-0.2,0.1-0.4,0.1-0.5c0-0.3-0.2-0.5-0.5-0.5c-0.2,0-0.4,0.1-0.6,0.2s-0.3,0.4-0.5,0.6s-0.3,0.6-0.3,1
		l-0.4,1.8h-0.9l0.9-4.3h0.7l-0.1,0.8h0c0.2-0.3,0.4-0.5,0.7-0.7s0.5-0.2,0.7-0.2c0.3,0,0.6,0.1,0.8,0.3s0.3,0.5,0.3,0.8
		c0,0.2,0,0.4-0.1,0.7l-0.5,2.6H385.8z"/>
	<path d="M390.8,47.9c0,0.5-0.2,0.8-0.5,1s-0.7,0.4-1.3,0.4c-0.5,0-0.9-0.1-1.3-0.3v-0.8c0.4,0.2,0.8,0.4,1.2,0.4
		c0.3,0,0.5-0.1,0.6-0.2s0.2-0.2,0.2-0.4c0-0.1,0-0.2-0.1-0.3s-0.3-0.2-0.6-0.4c-0.3-0.2-0.6-0.4-0.7-0.5s-0.2-0.4-0.2-0.6
		c0-0.4,0.1-0.7,0.4-0.9s0.7-0.3,1.1-0.3c0.5,0,1,0.1,1.4,0.3l-0.3,0.7c-0.4-0.2-0.7-0.3-1-0.3c-0.2,0-0.3,0-0.5,0.1
		s-0.2,0.2-0.2,0.4c0,0.1,0,0.2,0.1,0.3s0.3,0.2,0.5,0.4c0.3,0.2,0.5,0.3,0.6,0.4s0.2,0.2,0.3,0.4S390.8,47.8,390.8,47.9z"/>
	<path d="M394.8,44.9h1.1l-1.9,1.9l1.1,2.4h-1l-0.8-1.8l-0.5,0.4l-0.3,1.5h-0.9l1.3-6.1h0.9c-0.4,1.6-0.6,2.6-0.6,2.8
		s-0.1,0.6-0.2,0.9h0L394.8,44.9z"/>
	<path d="M397.6,49.3c-0.5,0-0.9-0.1-1.2-0.4s-0.4-0.7-0.4-1.2c0-0.5,0.1-1,0.3-1.4s0.5-0.8,0.8-1s0.7-0.4,1.2-0.4
		c0.4,0,0.7,0.1,1,0.3s0.3,0.5,0.3,0.8c0,0.5-0.2,0.8-0.7,1.1s-1.1,0.4-1.9,0.4h-0.2l0,0.1v0.1c0,0.3,0.1,0.5,0.2,0.7
		s0.4,0.2,0.7,0.2c0.2,0,0.4,0,0.6-0.1s0.4-0.1,0.7-0.3V49c-0.2,0.1-0.5,0.2-0.7,0.2S397.9,49.3,397.6,49.3z M398.2,45.6
		c-0.2,0-0.5,0.1-0.7,0.3s-0.4,0.5-0.5,0.9h0.1c0.5,0,0.9-0.1,1.1-0.2s0.4-0.3,0.4-0.6c0-0.1,0-0.2-0.1-0.3S398.4,45.6,398.2,45.6z"
		/>
	<path d="M402.2,49.3l1.2-5.7h0.9l-1,4.9h2.1l-0.2,0.8H402.2z"/>
	<path d="M407,49.3H406l0.9-4.3h0.9L407,49.3z M407.1,43.9c0-0.2,0.1-0.3,0.2-0.4s0.2-0.2,0.4-0.2c0.1,0,0.2,0,0.3,0.1
		s0.1,0.2,0.1,0.3c0,0.2-0.1,0.3-0.2,0.4s-0.2,0.2-0.4,0.2c-0.1,0-0.3,0-0.3-0.1S407.1,44,407.1,43.9z"/>
	<path d="M410,49.3c-0.5,0-0.9-0.1-1.2-0.4s-0.4-0.7-0.4-1.2c0-0.5,0.1-1,0.3-1.5s0.5-0.8,0.8-1s0.7-0.4,1.2-0.4
		c0.4,0,0.8,0.1,1.2,0.2l-0.3,0.7c-0.3-0.1-0.6-0.2-0.9-0.2c-0.4,0-0.7,0.2-1,0.6s-0.4,0.9-0.4,1.5c0,0.3,0.1,0.5,0.2,0.7
		s0.3,0.2,0.6,0.2c0.2,0,0.4,0,0.5-0.1s0.3-0.1,0.5-0.2v0.8C410.9,49.3,410.5,49.3,410,49.3z"/>
	<path d="M413.8,49.3c-0.5,0-0.9-0.1-1.2-0.4s-0.4-0.7-0.4-1.2c0-0.5,0.1-1,0.3-1.4s0.5-0.8,0.8-1s0.7-0.4,1.2-0.4
		c0.4,0,0.7,0.1,1,0.3s0.3,0.5,0.3,0.8c0,0.5-0.2,0.8-0.7,1.1s-1.1,0.4-1.9,0.4h-0.2l0,0.1v0.1c0,0.3,0.1,0.5,0.2,0.7
		s0.4,0.2,0.7,0.2c0.2,0,0.4,0,0.6-0.1s0.4-0.1,0.7-0.3V49c-0.2,0.1-0.5,0.2-0.7,0.2S414,49.3,413.8,49.3z M414.4,45.6
		c-0.2,0-0.5,0.1-0.7,0.3s-0.4,0.5-0.5,0.9h0.1c0.5,0,0.9-0.1,1.1-0.2s0.4-0.3,0.4-0.6c0-0.1,0-0.2-0.1-0.3S414.5,45.6,414.4,45.6z"
		/>
	<path d="M418.7,49.3l0.6-2.6c0-0.2,0.1-0.4,0.1-0.5c0-0.3-0.2-0.5-0.5-0.5c-0.2,0-0.4,0.1-0.6,0.2s-0.3,0.4-0.5,0.6s-0.3,0.6-0.3,1
		l-0.4,1.8h-0.9l0.9-4.3h0.7l-0.1,0.8h0c0.2-0.3,0.4-0.5,0.7-0.7s0.5-0.2,0.7-0.2c0.3,0,0.6,0.1,0.8,0.3s0.3,0.5,0.3,0.8
		c0,0.2,0,0.4-0.1,0.7l-0.5,2.6H418.7z"/>
	<path d="M423.7,47.9c0,0.5-0.2,0.8-0.5,1s-0.7,0.4-1.3,0.4c-0.5,0-0.9-0.1-1.3-0.3v-0.8c0.4,0.2,0.8,0.4,1.2,0.4
		c0.3,0,0.5-0.1,0.6-0.2s0.2-0.2,0.2-0.4c0-0.1,0-0.2-0.1-0.3s-0.3-0.2-0.6-0.4c-0.3-0.2-0.6-0.4-0.7-0.5s-0.2-0.4-0.2-0.6
		c0-0.4,0.1-0.7,0.4-0.9s0.7-0.3,1.1-0.3c0.5,0,1,0.1,1.4,0.3l-0.3,0.7c-0.4-0.2-0.7-0.3-1-0.3c-0.2,0-0.3,0-0.5,0.1
		s-0.2,0.2-0.2,0.4c0,0.1,0,0.2,0.1,0.3s0.3,0.2,0.5,0.4c0.3,0.2,0.5,0.3,0.6,0.4s0.2,0.2,0.3,0.4S423.7,47.8,423.7,47.9z"/>
	<path d="M430,47.6c0,0.5-0.2,1-0.6,1.3s-0.9,0.5-1.6,0.5c-0.5,0-1-0.1-1.4-0.3v-0.9c0.5,0.3,0.9,0.4,1.4,0.4c0.4,0,0.6-0.1,0.8-0.2
		s0.3-0.4,0.3-0.6c0-0.2-0.1-0.3-0.2-0.5s-0.3-0.3-0.7-0.5c-0.3-0.2-0.5-0.3-0.6-0.5s-0.2-0.3-0.3-0.5s-0.1-0.4-0.1-0.6
		c0-0.3,0.1-0.6,0.2-0.9s0.4-0.5,0.7-0.6s0.6-0.2,1-0.2c0.5,0,1,0.1,1.5,0.4l-0.3,0.7c-0.4-0.2-0.8-0.3-1.2-0.3
		c-0.3,0-0.5,0.1-0.7,0.2s-0.3,0.4-0.3,0.6c0,0.1,0,0.2,0.1,0.3s0.1,0.2,0.2,0.3s0.3,0.2,0.5,0.4c0.4,0.3,0.7,0.5,0.8,0.7
		S430,47.3,430,47.6z"/>
	<path d="M432.8,49.3c-0.5,0-0.8-0.2-1.1-0.7h0c0,0.3-0.1,0.5-0.1,0.7l-0.4,1.8h-0.9l1.3-6.2h0.7l-0.1,0.7h0
		c0.4-0.5,0.9-0.8,1.3-0.8c0.4,0,0.7,0.1,0.9,0.4s0.3,0.6,0.3,1.1c0,0.5-0.1,1-0.3,1.5s-0.4,0.8-0.7,1.1S433.1,49.3,432.8,49.3z
		 M433.3,45.6c-0.2,0-0.4,0.1-0.6,0.3s-0.4,0.5-0.5,0.8s-0.2,0.7-0.2,1.1c0,0.2,0.1,0.4,0.2,0.6s0.3,0.2,0.5,0.2s0.4-0.1,0.6-0.3
		s0.3-0.5,0.5-0.8s0.2-0.7,0.2-1.1C433.9,45.9,433.7,45.6,433.3,45.6z"/>
	<path d="M436.3,49.3h-0.9l0.9-4.3h0.9L436.3,49.3z M436.5,43.9c0-0.2,0.1-0.3,0.2-0.4s0.2-0.2,0.4-0.2c0.1,0,0.2,0,0.3,0.1
		s0.1,0.2,0.1,0.3c0,0.2-0.1,0.3-0.2,0.4s-0.2,0.2-0.4,0.2c-0.1,0-0.3,0-0.3-0.1S436.5,44,436.5,43.9z"/>
	<path d="M438.5,49.3h-0.9l1.3-6.1h0.9L438.5,49.3z"/>
	<path d="M439.7,48.9c0-0.2,0.1-0.4,0.2-0.5s0.3-0.2,0.5-0.2c0.1,0,0.3,0,0.3,0.1s0.1,0.2,0.1,0.4c0,0.2-0.1,0.4-0.2,0.5
		s-0.3,0.2-0.5,0.2c-0.2,0-0.3,0-0.4-0.1S439.7,49,439.7,48.9z"/>
	<path d="M443.4,47l-0.5,2.3H442l1.2-5.7h1.3c0.6,0,1,0.1,1.3,0.4s0.5,0.6,0.5,1.1c0,0.4-0.1,0.8-0.3,1.1s-0.6,0.5-1,0.6l1,2.5h-1
		l-0.8-2.3H443.4z M443.6,46.2h0.5c0.4,0,0.8-0.1,1-0.3s0.3-0.5,0.3-0.8c0-0.3-0.1-0.5-0.2-0.6s-0.4-0.2-0.7-0.2H444L443.6,46.2z"/>
	<path d="M448.4,49.3c-0.5,0-0.9-0.1-1.2-0.4s-0.4-0.7-0.4-1.2c0-0.5,0.1-1,0.3-1.4s0.5-0.8,0.8-1s0.7-0.4,1.2-0.4
		c0.4,0,0.7,0.1,1,0.3s0.3,0.5,0.3,0.8c0,0.5-0.2,0.8-0.7,1.1s-1.1,0.4-1.9,0.4h-0.2l0,0.1v0.1c0,0.3,0.1,0.5,0.2,0.7
		s0.4,0.2,0.7,0.2c0.2,0,0.4,0,0.6-0.1s0.4-0.1,0.7-0.3V49c-0.2,0.1-0.5,0.2-0.7,0.2S448.7,49.3,448.4,49.3z M449,45.6
		c-0.2,0-0.5,0.1-0.7,0.3s-0.4,0.5-0.5,0.9h0.1c0.5,0,0.9-0.1,1.1-0.2s0.4-0.3,0.4-0.6c0-0.1,0-0.2-0.1-0.3S449.2,45.6,449,45.6z"/>
	<path d="M455.1,44.9l-0.1,0.5l-0.8,0.1c0.1,0.2,0.1,0.3,0.1,0.5c0,0.5-0.2,0.9-0.5,1.2s-0.7,0.4-1.2,0.4c-0.1,0-0.3,0-0.4,0
		c-0.3,0.1-0.4,0.2-0.4,0.4c0,0.1,0,0.2,0.1,0.2s0.2,0.1,0.4,0.1l0.5,0.1c0.5,0.1,0.8,0.2,1,0.3s0.3,0.4,0.3,0.7
		c0,0.5-0.2,0.9-0.6,1.2s-1,0.4-1.7,0.4c-0.5,0-0.9-0.1-1.2-0.3s-0.4-0.5-0.4-0.8c0-0.3,0.1-0.5,0.3-0.7s0.5-0.4,0.9-0.5
		c-0.2-0.1-0.3-0.3-0.3-0.5c0-0.2,0.1-0.3,0.2-0.5s0.3-0.3,0.6-0.4c-0.4-0.2-0.5-0.5-0.5-1c0-0.5,0.2-0.9,0.5-1.2s0.7-0.5,1.3-0.5
		c0.2,0,0.4,0,0.6,0.1H455.1z M451.9,49.2c-0.3,0-0.5,0.1-0.7,0.3S451,49.8,451,50c0,0.2,0.1,0.3,0.2,0.4s0.4,0.2,0.7,0.2
		c0.4,0,0.8-0.1,1-0.2s0.4-0.3,0.4-0.6c0-0.1-0.1-0.2-0.2-0.3s-0.3-0.1-0.6-0.2L451.9,49.2z M453,45.5c-0.2,0-0.3,0-0.4,0.2
		s-0.2,0.2-0.3,0.4s-0.1,0.4-0.1,0.6c0,0.2,0,0.3,0.1,0.4s0.2,0.2,0.4,0.2c0.2,0,0.3-0.1,0.4-0.2s0.2-0.2,0.3-0.4s0.1-0.4,0.1-0.6
		C453.5,45.7,453.3,45.5,453,45.5z"/>
	<path d="M455.9,49.3H455l1.3-6.1h0.9L455.9,49.3z"/>
	<path d="M459,49.3c-0.5,0-0.9-0.1-1.2-0.4s-0.4-0.7-0.4-1.2c0-0.5,0.1-1,0.3-1.4s0.5-0.8,0.8-1s0.7-0.4,1.2-0.4
		c0.4,0,0.7,0.1,1,0.3s0.3,0.5,0.3,0.8c0,0.5-0.2,0.8-0.7,1.1s-1.1,0.4-1.9,0.4h-0.2l0,0.1v0.1c0,0.3,0.1,0.5,0.2,0.7
		s0.4,0.2,0.7,0.2c0.2,0,0.4,0,0.6-0.1s0.4-0.1,0.7-0.3V49c-0.2,0.1-0.5,0.2-0.7,0.2S459.3,49.3,459,49.3z M459.6,45.6
		c-0.2,0-0.5,0.1-0.7,0.3s-0.4,0.5-0.5,0.9h0.1c0.5,0,0.9-0.1,1.1-0.2s0.4-0.3,0.4-0.6c0-0.1,0-0.2-0.1-0.3S459.8,45.6,459.6,45.6z"
		/>
	<path d="M464.3,44.9c0.2,0,0.3,0,0.4,0l-0.2,0.9c-0.1,0-0.3-0.1-0.4-0.1c-0.3,0-0.6,0.1-0.9,0.4s-0.4,0.7-0.5,1.2l-0.4,2h-0.9
		l0.9-4.3h0.7l-0.1,0.8h0c0.2-0.3,0.4-0.5,0.6-0.7S464.1,44.9,464.3,44.9z"/>
	<path d="M470.8,46.6c0,0.5-0.1,1-0.3,1.4s-0.5,0.8-0.8,1s-0.7,0.3-1.1,0.3c-0.5,0-0.9-0.1-1.2-0.4s-0.4-0.7-0.4-1.2
		c0-0.5,0.1-1,0.3-1.4s0.4-0.8,0.8-1s0.7-0.4,1.2-0.4c0.5,0,0.9,0.2,1.2,0.5S470.8,46,470.8,46.6z M469.8,46.5
		c0-0.3-0.1-0.5-0.2-0.7s-0.3-0.2-0.5-0.2c-0.2,0-0.5,0.1-0.7,0.3s-0.3,0.4-0.4,0.8s-0.2,0.7-0.2,1c0,0.3,0.1,0.5,0.2,0.7
		s0.3,0.2,0.6,0.2c0.2,0,0.4-0.1,0.6-0.3s0.3-0.4,0.4-0.7S469.8,46.9,469.8,46.5z"/>
	<path d="M475.6,44.9l-0.1,0.5l-0.8,0.1c0.1,0.2,0.1,0.3,0.1,0.5c0,0.5-0.2,0.9-0.5,1.2s-0.7,0.4-1.2,0.4c-0.1,0-0.3,0-0.4,0
		c-0.3,0.1-0.4,0.2-0.4,0.4c0,0.1,0,0.2,0.1,0.2s0.2,0.1,0.4,0.1l0.5,0.1c0.5,0.1,0.8,0.2,1,0.3s0.3,0.4,0.3,0.7
		c0,0.5-0.2,0.9-0.6,1.2s-1,0.4-1.7,0.4c-0.5,0-0.9-0.1-1.2-0.3s-0.4-0.5-0.4-0.8c0-0.3,0.1-0.5,0.3-0.7s0.5-0.4,0.9-0.5
		c-0.2-0.1-0.3-0.3-0.3-0.5c0-0.2,0.1-0.3,0.2-0.5s0.3-0.3,0.6-0.4c-0.4-0.2-0.5-0.5-0.5-1c0-0.5,0.2-0.9,0.5-1.2s0.7-0.5,1.3-0.5
		c0.2,0,0.4,0,0.6,0.1H475.6z M472.4,49.2c-0.3,0-0.5,0.1-0.7,0.3s-0.2,0.3-0.2,0.5c0,0.2,0.1,0.3,0.2,0.4s0.4,0.2,0.7,0.2
		c0.4,0,0.8-0.1,1-0.2s0.4-0.3,0.4-0.6c0-0.1-0.1-0.2-0.2-0.3s-0.3-0.1-0.6-0.2L472.4,49.2z M473.5,45.5c-0.2,0-0.3,0-0.4,0.2
		s-0.2,0.2-0.3,0.4s-0.1,0.4-0.1,0.6c0,0.2,0,0.3,0.1,0.4s0.2,0.2,0.4,0.2c0.2,0,0.3-0.1,0.4-0.2s0.2-0.2,0.3-0.4s0.1-0.4,0.1-0.6
		C474,45.7,473.8,45.5,473.5,45.5z"/>
	<path d="M478.3,49.3l-0.5-4.3h0.9l0.2,2.3c0,0.4,0.1,0.8,0.1,1.2h0c0.1-0.2,0.2-0.4,0.3-0.6s0.2-0.4,0.3-0.5l1.2-2.3h1l-2.3,4.3
		H478.3z"/>
	<path d="M482.4,49.3h-0.9l0.9-4.3h0.9L482.4,49.3z M482.6,43.9c0-0.2,0.1-0.3,0.2-0.4s0.2-0.2,0.4-0.2c0.1,0,0.2,0,0.3,0.1
		s0.1,0.2,0.1,0.3c0,0.2-0.1,0.3-0.2,0.4s-0.2,0.2-0.4,0.2c-0.1,0-0.3,0-0.3-0.1S482.6,44,482.6,43.9z"/>
	<path d="M484.6,49.3h-0.9l1.3-6.1h0.9L484.6,49.3z"/>
	<path d="M489.1,44.9h1.1l-1.9,1.9l1.1,2.4h-1l-0.8-1.8l-0.5,0.4l-0.3,1.5h-0.9l1.3-6.1h0.9c-0.4,1.6-0.6,2.6-0.6,2.8
		s-0.1,0.6-0.2,0.9h0L489.1,44.9z"/>
	<path d="M491.5,49.3c-0.4,0-0.7-0.1-0.9-0.4s-0.3-0.6-0.3-1.1c0-0.5,0.1-1,0.3-1.5s0.4-0.8,0.7-1.1s0.7-0.4,1-0.4
		c0.3,0,0.5,0.1,0.7,0.2s0.3,0.3,0.4,0.5h0l0.2-0.6h0.7l-0.9,4.3h-0.7l0.1-0.7h0C492.4,49.1,492,49.3,491.5,49.3z M491.8,48.6
		c0.2,0,0.4-0.1,0.6-0.3s0.4-0.5,0.5-0.8s0.2-0.7,0.2-1.1c0-0.2-0.1-0.4-0.2-0.6s-0.3-0.2-0.5-0.2c-0.2,0-0.4,0.1-0.6,0.3
		s-0.4,0.5-0.5,0.8s-0.2,0.7-0.2,1.1c0,0.3,0.1,0.5,0.2,0.6S491.6,48.6,491.8,48.6z M493.8,43.5c0,0.3-0.1,0.5-0.3,0.6
		s-0.4,0.2-0.7,0.2s-0.5-0.1-0.7-0.2s-0.2-0.4-0.2-0.6s0.1-0.5,0.3-0.6s0.4-0.2,0.7-0.2c0.3,0,0.5,0.1,0.7,0.2
		S493.8,43.3,493.8,43.5z M493.3,43.5c0-0.1,0-0.2-0.1-0.3s-0.2-0.1-0.3-0.1c-0.1,0-0.2,0-0.3,0.1s-0.1,0.2-0.1,0.3
		c0,0.1,0,0.2,0.1,0.3s0.2,0.1,0.3,0.1c0.1,0,0.2,0,0.3-0.1S493.3,43.7,493.3,43.5z"/>
	<path d="M497.7,44.9c0.2,0,0.3,0,0.4,0l-0.2,0.9c-0.1,0-0.3-0.1-0.4-0.1c-0.3,0-0.6,0.1-0.9,0.4s-0.4,0.7-0.5,1.2l-0.4,2h-0.9
		l0.9-4.3h0.7l-0.1,0.8h0c0.2-0.3,0.4-0.5,0.6-0.7S497.4,44.9,497.7,44.9z"/>
	<path d="M504.3,44.9l-0.1,0.5l-0.8,0.1c0.1,0.2,0.1,0.3,0.1,0.5c0,0.5-0.2,0.9-0.5,1.2s-0.7,0.4-1.2,0.4c-0.1,0-0.3,0-0.4,0
		c-0.3,0.1-0.4,0.2-0.4,0.4c0,0.1,0,0.2,0.1,0.2s0.2,0.1,0.4,0.1l0.5,0.1c0.5,0.1,0.8,0.2,1,0.3s0.3,0.4,0.3,0.7
		c0,0.5-0.2,0.9-0.6,1.2s-1,0.4-1.7,0.4c-0.5,0-0.9-0.1-1.2-0.3s-0.4-0.5-0.4-0.8c0-0.3,0.1-0.5,0.3-0.7s0.5-0.4,0.9-0.5
		c-0.2-0.1-0.3-0.3-0.3-0.5c0-0.2,0.1-0.3,0.2-0.5s0.3-0.3,0.6-0.4c-0.4-0.2-0.5-0.5-0.5-1c0-0.5,0.2-0.9,0.5-1.2s0.7-0.5,1.3-0.5
		c0.2,0,0.4,0,0.6,0.1H504.3z M501.1,49.2c-0.3,0-0.5,0.1-0.7,0.3s-0.2,0.3-0.2,0.5c0,0.2,0.1,0.3,0.2,0.4s0.4,0.2,0.7,0.2
		c0.4,0,0.8-0.1,1-0.2s0.4-0.3,0.4-0.6c0-0.1-0.1-0.2-0.2-0.3s-0.3-0.1-0.6-0.2L501.1,49.2z M502.2,45.5c-0.2,0-0.3,0-0.4,0.2
		s-0.2,0.2-0.3,0.4s-0.1,0.4-0.1,0.6c0,0.2,0,0.3,0.1,0.4s0.2,0.2,0.4,0.2c0.2,0,0.3-0.1,0.4-0.2s0.2-0.2,0.3-0.4s0.1-0.4,0.1-0.6
		C502.7,45.7,502.5,45.5,502.2,45.5z"/>
	<path d="M508.7,49.3c-0.6,0-1-0.2-1.2-0.5l-0.1,0.5h-0.6l0.1-0.7h0c-0.2,0.3-0.4,0.5-0.6,0.6s-0.4,0.2-0.7,0.2
		c-0.3,0-0.6-0.1-0.8-0.4s-0.3-0.6-0.3-1.1c0-0.5,0.1-1,0.3-1.5s0.4-0.8,0.7-1.1s0.7-0.4,1-0.4c0.2,0,0.4,0.1,0.6,0.2
		s0.3,0.3,0.4,0.5h0l0.2-0.6h0.6l-0.1,0.5c0.1-0.2,0.3-0.3,0.5-0.4s0.4-0.1,0.7-0.1c0.4,0,0.7,0.1,0.9,0.3s0.3,0.5,0.3,0.8
		c0,0.5-0.2,0.8-0.7,1.1s-1.1,0.4-1.9,0.4h-0.2l0,0.2c0,0.3,0.1,0.5,0.2,0.7s0.4,0.2,0.7,0.2c0.3,0,0.7-0.1,1.2-0.3V49
		C509.6,49.2,509.1,49.3,508.7,49.3z M505.9,48.6c0.2,0,0.4-0.1,0.6-0.3s0.4-0.5,0.5-0.8s0.2-0.7,0.2-1c0-0.2,0-0.4-0.2-0.6
		s-0.2-0.2-0.4-0.2c-0.2,0-0.4,0.1-0.6,0.3s-0.3,0.5-0.5,0.8s-0.2,0.7-0.2,1.1c0,0.3,0,0.5,0.1,0.6S505.7,48.6,505.9,48.6z
		 M509.3,45.6c-0.3,0-0.5,0.1-0.7,0.3s-0.4,0.5-0.5,0.9h0.1c0.5,0,0.9-0.1,1.1-0.2s0.4-0.3,0.4-0.6c0-0.2,0-0.3-0.1-0.3
		S509.4,45.6,509.3,45.6z"/>
	<path d="M511.9,49.3H511l1.3-6.1h0.9L511.9,49.3z"/>
	<path d="M515.4,44.9c0.5,0,0.8,0.2,1,0.7h0c0-0.4,0.1-0.7,0.1-1l0.3-1.4h0.9l-1.3,6.1h-0.7l0.1-0.7h0c-0.2,0.3-0.5,0.5-0.7,0.6
		s-0.4,0.2-0.7,0.2c-0.4,0-0.7-0.1-0.9-0.4s-0.3-0.6-0.3-1.1c0-0.5,0.1-1,0.3-1.5s0.4-0.8,0.7-1.1S515,44.9,515.4,44.9z M514.9,48.6
		c0.2,0,0.4-0.1,0.6-0.3s0.4-0.5,0.5-0.8s0.2-0.7,0.2-1c0-0.2-0.1-0.4-0.2-0.6s-0.3-0.2-0.5-0.2c-0.2,0-0.4,0.1-0.6,0.3
		s-0.3,0.5-0.5,0.8s-0.2,0.7-0.2,1.1C514.3,48.3,514.5,48.6,514.9,48.6z"/>
	<path d="M519.7,49.3c-0.5,0-0.9-0.1-1.2-0.4s-0.4-0.7-0.4-1.2c0-0.5,0.1-1,0.3-1.4s0.5-0.8,0.8-1s0.7-0.4,1.2-0.4
		c0.4,0,0.7,0.1,1,0.3s0.3,0.5,0.3,0.8c0,0.5-0.2,0.8-0.7,1.1s-1.1,0.4-1.9,0.4H519l0,0.1v0.1c0,0.3,0.1,0.5,0.2,0.7
		s0.4,0.2,0.7,0.2c0.2,0,0.4,0,0.6-0.1s0.4-0.1,0.7-0.3V49c-0.2,0.1-0.5,0.2-0.7,0.2S519.9,49.3,519.7,49.3z M520.3,45.6
		c-0.2,0-0.5,0.1-0.7,0.3s-0.4,0.5-0.5,0.9h0.1c0.5,0,0.9-0.1,1.1-0.2s0.4-0.3,0.4-0.6c0-0.1,0-0.2-0.1-0.3S520.4,45.6,520.3,45.6z"
		/>
	<path d="M525,44.9c0.2,0,0.3,0,0.4,0l-0.2,0.9c-0.1,0-0.3-0.1-0.4-0.1c-0.3,0-0.6,0.1-0.9,0.4s-0.4,0.7-0.5,1.2l-0.4,2h-0.9
		l0.9-4.3h0.7l-0.1,0.8h0c0.2-0.3,0.4-0.5,0.6-0.7S524.7,44.9,525,44.9z"/>
	<path d="M525.3,48.9c0-0.2,0.1-0.4,0.2-0.5s0.3-0.2,0.5-0.2c0.1,0,0.3,0,0.3,0.1s0.1,0.2,0.1,0.4c0,0.2-0.1,0.4-0.2,0.5
		s-0.3,0.2-0.5,0.2c-0.2,0-0.3,0-0.4-0.1S525.3,49,525.3,48.9z"/>
</g>
</svg>
