<?xml version="1.0" encoding="utf-8"?>
<!-- Generator: Adobe Illustrator 23.1.1, SVG Export Plug-In . SVG Version: 6.00 Build 0)  -->
<svg version="1.1" id="Layer_1" xmlns="http://www.w3.org/2000/svg" xmlns:xlink="http://www.w3.org/1999/xlink" x="0px" y="0px"
	 viewBox="0 0 540 53" style="enable-background:new 0 0 540 53;" xml:space="preserve">
<style type="text/css">
	.st0{fill:#1A478E;}
	.st1{fill:#FDB814;}
	.st2{fill:#FFFFFF;}
	.st3{fill:#F26222;}
	.st4{fill:#231F20;}
</style>
<path class="st0" d="M530.8,37.6c0.1,1.7-1.2,3.2-2.9,3.3H13.1c-1.7-0.1-3-1.6-2.9-3.3V3.1c-0.1-1.7,1.2-3.2,2.9-3.3c0,0,0,0,0,0
	h514.7c1.7,0.1,3,1.6,2.9,3.3V37.6z"/>
<path class="st1" d="M39.9,21.9L38,11.2c-0.1-0.6-0.6-1-1.2-0.9c0,0,0,0-0.1,0l-11.2,2c-0.3,0.1-0.6,0.2-0.9,0.4
	c0,0-2.9,2.7-3.3,3.1c-0.5,0.5-0.7,1.2-0.6,1.8L23,29.9c0.1,0.6,0.7,1,1.3,0.9c0,0,0,0,0,0c0.5-0.1,11.5-2,12.1-2.1
	c0.7-0.2,1.3-0.7,1.6-1.3l1.7-3.7C40,23.1,40.1,22.5,39.9,21.9 M33.9,12.6c-0.6,0.4-1.3,0.6-2,0.7c-0.8,0.1-1.2,0-0.9-0.3
	c0.6-0.4,1.3-0.6,2-0.7C33.8,12.2,34.2,12.3,33.9,12.6 M32.1,12.1l-2.5,0.8h-1.8l2.5-0.8L32.1,12.1z M25.4,12.7l2.5-0.4L27.1,13
	l-2.5,0.4L25.4,12.7z M24.4,29.5l-0.5-2.7l2.7-0.5L27,29L24.4,29.5z M26.6,25.5l-1.8-2.1l0.9-2.6l1.8,2.1L26.6,25.5z M29.1,21.1
	c-0.9,0.1-1.7-0.4-1.8-1.3c-0.1-0.9,0.4-1.7,1.3-1.8c0.9-0.1,1.7,0.4,1.8,1.3C30.6,20.1,30,20.9,29.1,21.1 M32.7,19.2l-2.1-2.5
	l3.3-0.6L32.7,19.2z M33.8,14h-2.4l3.1-0.9L33.8,14z M37.7,12.4l0.1,2.8l-0.8-2L37.7,12.4z M36.8,14.9c0.2-0.2,0.4,0.2,0.5,1
	c0.2,0.6,0.2,1.2,0,1.8c-0.2,0.2-0.4-0.2-0.5-1C36.6,16.1,36.6,15.5,36.8,14.9 M36.8,18.1l0.7,1.8l0.1,2.7l-0.7-1.8L36.8,18.1z
	 M37.6,26.7L37.2,24l0.5-1l0.5,2.6L37.6,26.7z"/>
<path class="st2" d="M518.5,14.4c0,1.2,1,2.2,2.2,2.2s2.2-1,2.2-2.2s-1-2.2-2.2-2.2l0,0C519.5,12.3,518.5,13.2,518.5,14.4
	 M518.9,14.4c0-1,0.8-1.7,1.7-1.7c1,0,1.7,0.8,1.7,1.7c0,1-0.8,1.7-1.7,1.7c0,0,0,0,0,0C519.7,16.2,518.9,15.4,518.9,14.4"/>
<path class="st3" d="M496.9,11.9l-1.9-2.1l0.2-0.3l1.5-1.6c0.3-0.3,0.4-0.7,0.5-1.1c-0.1-0.8-0.7-1.4-1.5-1.4
	c-0.4,0-0.8,0.2-1.1,0.6l-1,1.4l-0.2,0.3l-0.2-0.3l-1-1.4c-0.3-0.4-0.7-0.6-1.2-0.6c-0.8,0-1.5,0.6-1.5,1.4c0,0.4,0.2,0.8,0.5,1.1
	l1.5,1.6l0.2,0.3l-1.9,2.1c-0.2,0.3-0.4,0.6-0.4,1c0,0.8,0.5,1.4,1.3,1.4c0.1,0,0.1,0,0.2,0c0.5,0,1-0.2,1.2-0.6l1.3-1.6l1.3,1.6
	c0.3,0.4,0.7,0.7,1.2,0.6c0.7,0.1,1.4-0.5,1.4-1.3c0-0.1,0-0.1,0-0.2C497.3,12.5,497.2,12.1,496.9,11.9"/>
<path class="st2" d="M498.1,26c-0.9,0-1.9,0-2.8-0.1c-0.3-0.1-0.4-0.1-0.5-0.3c-0.1-0.2-0.1-0.5-0.1-0.7c0,0,0-0.1,0-0.1v-0.2l0,0
	c0,0,0-0.2,0.1-0.6l0.1-0.6l0.4-1.9c0.1-0.5,0.2-1,0.4-1.5c0.1-0.3,0.2-0.6,0.5-0.9c0.2-0.2,0.4-0.3,0.7-0.4
	c0.9-0.1,1.9-0.1,2.8-0.1c0.9,0,1.9,0,2.8,0.1c0.2,0,0.4,0.2,0.5,0.3c0.1,0.3,0.2,0.7,0.1,1c-0.1,0.4-0.2,0.8-0.5,1.1
	c-0.2,0.2-0.4,0.3-0.7,0.4c-0.4,0.1-2.2,0.1-2.9,0.1h-0.5c-0.7,0.1-1.3,0.7-1.4,1.5l-0.1,0.7h1.7c0.7,0,2.8,0,3.5-0.1
	c0.9,0,1.7-0.4,2.3-1c0.7-0.7,1.1-1.5,1.2-2.5v-0.1l0,0c0.2-0.9,0.1-1.7-0.3-2.5c-0.4-0.7-1.1-1.2-1.9-1.1c-0.7,0-2.8-0.1-3.5-0.1
	s-2.7,0-3.5,0.1c-0.9,0-1.7,0.4-2.2,1.1c-0.7,0.7-1.1,1.6-1.3,2.6l-0.1,0.5c-0.1,0.5-0.2,0.8-0.3,1.5s-0.2,1.1-0.3,1.5l-0.1,0.6
	c-0.2,0.9-0.1,1.9,0.4,2.7c0.4,0.7,1.1,1.1,1.9,1.1c0.7,0,6.7,0.1,7.4,0.1c1.2,0,1.5-1.5,1.6-2.3L498.1,26z"/>
<path class="st2" d="M482.6,16.5L482.6,16.5c-2.4,0.1-3,2.5-3.1,3c-0.2,0.7-0.2,1.5,0.1,2.2c0.3,0.6,0.9,1,1.6,1.1
	c0.6,0.1,2.2,0.3,3.7,0.4h0.1c1,0.1,2.1,0.2,2.3,0.2s0.5,0.2,0.6,0.3c0.1,0.2,0.1,0.3,0,0.5c-0.2,0.9-0.6,1.3-1.3,1.4
	c-1,0.1-2.5,0.1-2.9,0.1s-2.7-0.1-3.6-0.1c-0.3,0-0.6,0.1-0.9,0.4c-0.3,0.3-0.5,0.8-0.6,1.2l-0.1,0.6l0.5,0.1
	c0.8,0.1,3.8,0.2,4.4,0.2c0.8,0,1.3,0,2.1,0h1.5c1.7-0.1,3-1.4,3.3-3l0.2-0.7l0,0c0.1-0.3,0.1-0.5,0.1-0.8c0-0.5,0-1-0.2-1.4
	c-0.4-0.7-1.1-1.1-1.9-1.1c-1.6-0.2-5.4-0.6-5.8-0.6c-0.2,0-0.5-0.1-0.6-0.3c0-0.1,0-0.1,0-0.2c0,0,0-0.1,0-0.1c0.1-0.6,0.3-0.9,1-1
	s2.5-0.1,3.3-0.1h1.3h1.9c0.8-0.1,1.4-0.7,1.4-1.5l0.1-0.7h-0.5c-0.7,0-2.9-0.1-3.9-0.1S484.5,16.5,482.6,16.5"/>
<path class="st2" d="M463.5,12.9h-0.1c-1.4,0-2.3,0.9-2.6,2.5l-1.3,6.8c-0.1,0.6-0.4,1.9-0.5,2.4c-0.1,0.3-0.2,0.6-0.5,0.9
	c-0.2,0.2-0.4,0.3-0.7,0.4c-0.9,0.1-1.7,0.1-2.6,0.1c-0.8,0-1.7,0-2.5-0.1c-0.3-0.1-0.4-0.1-0.5-0.3c-0.1-0.2-0.1-0.5-0.1-0.8
	c0-0.5,0.3-1.9,0.4-2.4s0.4-1.9,0.5-2.4c0.1-0.3,0.2-0.6,0.5-0.9c0.2-0.2,0.4-0.3,0.7-0.4c0.9-0.1,1.7-0.1,2.6-0.1h0.3
	c0.3,0,0.6-0.1,0.8-0.4c0.3-0.3,0.5-0.7,0.5-1.1l0.1-0.7l-0.8-0.1c-0.2,0-0.4,0-0.7,0c-0.7,0-2.5,0-3.2,0.1c-0.9,0-1.7,0.4-2.2,1.1
	c-0.7,0.7-1.1,1.6-1.3,2.6l-0.1,0.6c-0.1,0.5-0.2,0.8-0.3,1.5s-0.2,1-0.2,1.5l-0.1,0.6c-0.2,0.9-0.1,1.9,0.4,2.7
	c0.4,0.7,1.1,1.1,1.9,1.1c0.7,0,2.5,0.1,3.2,0.1s2.5,0,3.2-0.1c0.9,0,1.7-0.4,2.2-1.1c0.7-0.7,1.1-1.6,1.3-2.6l0.1-0.6
	c0.1-0.5,0.2-0.8,0.3-1.5l1.9-9.5L463.5,12.9z"/>
<path class="st2" d="M478.1,12.9L478.1,12.9c-1.4,0-2.4,0.9-2.7,2.5l-1.4,6.8c-0.1,0.6-0.4,1.9-0.5,2.4c-0.1,0.3-0.2,0.6-0.5,0.9
	c-0.2,0.2-0.4,0.3-0.7,0.4c-0.9,0.1-1.7,0.1-2.6,0.1c-0.8,0-1.7,0-2.5-0.1c-0.3-0.1-0.4-0.1-0.5-0.3c-0.1-0.2-0.1-0.5-0.1-0.8
	c0-0.5,0.3-1.9,0.4-2.4s0.4-1.9,0.5-2.4c0.1-0.3,0.2-0.6,0.5-0.9c0.2-0.2,0.4-0.3,0.7-0.4c0.9-0.1,1.7-0.1,2.6-0.1h0.2
	c0.3,0,0.6-0.1,0.8-0.4c0.3-0.3,0.5-0.7,0.5-1.1l0.1-0.7l-0.8-0.1c-0.2,0-0.5,0-0.7,0c-0.7,0-2.5,0-3.2,0.1c-0.9,0-1.7,0.4-2.2,1.1
	c-0.7,0.7-1.1,1.6-1.3,2.6l-0.1,0.6c-0.1,0.5-0.2,0.8-0.3,1.5s-0.2,1-0.3,1.5l-0.1,0.6c-0.2,0.9-0.1,1.9,0.4,2.7
	c0.4,0.7,1.1,1.1,1.9,1.1c0.7,0,2.5,0.1,3.2,0.1s2.5,0,3.2-0.1c0.9,0,1.7-0.4,2.2-1.1c0.7-0.7,1.1-1.6,1.3-2.6l0.1-0.6
	c0.1-0.5,0.2-0.8,0.3-1.5l1.9-9.5L478.1,12.9z"/>
<path class="st2" d="M436.5,25.9c-0.3-0.1-0.4-0.1-0.5-0.3c-0.1-0.2-0.1-0.5-0.1-0.8c0-0.5,0.5-2.9,0.7-4c0.1-0.7,0.7-3.8,0.9-4.3
	c0.1-0.3,0.2-0.6,0.5-0.9c0.2-0.2,0.4-0.3,0.7-0.4c0.4-0.1,2.7-0.1,3.3-0.1c0.8,0,2.9,0,3.3,0.1s0.4,0.1,0.5,0.3
	c0.1,0.2,0.1,0.5,0.1,0.8c0,0.5-0.5,3.1-0.8,4.3c-0.1,0.7-0.7,3.5-0.9,4c-0.1,0.3-0.2,0.6-0.5,0.9c-0.2,0.2-0.4,0.3-0.7,0.4
	c-0.4,0.1-2.7,0.1-3.3,0.1C439,25.9,436.9,25.9,436.5,25.9 M438.4,13c-0.9,0-1.7,0.4-2.2,1.1c-0.7,0.7-1.1,1.6-1.3,2.6l-0.1,0.6
	c-0.1,0.5-0.6,2.8-0.7,3.4s-0.5,2.6-0.6,3.1l-0.1,0.6c-0.2,0.9-0.1,1.9,0.4,2.7c0.4,0.7,1.1,1.2,1.9,1.2c0.7,0,3.2,0.1,3.9,0.1
	s3.2,0,3.9-0.1c0.9,0,1.7-0.4,2.2-1.1c0.7-0.7,1.2-1.6,1.3-2.6l0.1-0.6c0.1-0.5,0.5-2.4,0.6-3.1s0.5-2.9,0.6-3.4l0.1-0.6
	c0.2-0.9,0.1-1.9-0.4-2.7c-0.4-0.7-1.1-1.1-1.9-1.1c-0.7-0.1-3.2-0.1-3.9-0.1S439.1,12.9,438.4,13"/>
<path class="st2" d="M511.8,12.9h-0.4c-0.7,0-1.4,0.3-1.9,0.9c-0.3,0.4-0.6,0.8-0.8,1.3c-0.1,0.2-0.1,0.3-0.1,0.5l-0.2,1.2l-1,5.1
	c-0.2,1-0.3,1.6-0.4,2.5c-0.2,0.9-0.1,1.9,0.4,2.7c0.3,0.7,1.1,1.2,1.9,1.2c0.7,0,3.1,0.1,3.8,0.1h0.7c0.7,0,1.2-0.7,1.4-1.6v-0.2
	l0.1-0.5h-1.9c-1,0-2.9,0-3.2-0.1s-0.4-0.1-0.5-0.3c-0.1-0.2-0.1-0.4-0.1-0.7v-0.1c0-0.5,0.4-2.2,0.5-2.8l0.6-3.3h4.6l0.4-2.2h-4.7
	L511.8,12.9z"/>
<path class="st4" d="M349.9,44.4l-0.7,3.3c-0.1,0.5-0.3,1-0.7,1.3c-0.4,0.3-0.9,0.5-1.4,0.4c-0.4,0-0.8-0.1-1.1-0.4
	c-0.3-0.3-0.4-0.6-0.4-1c0-0.2,0-0.4,0.1-0.6l0.7-3.1h0.8l-0.7,3.1c0,0.2-0.1,0.4-0.1,0.5c0,0.2,0.1,0.4,0.2,0.5
	c0.2,0.1,0.4,0.2,0.6,0.2c0.3,0,0.6-0.1,0.8-0.3c0.2-0.2,0.4-0.6,0.4-0.9l0.7-3.2L349.9,44.4z"/>
<path class="st4" d="M351.9,45.6c0.4,0,0.8,0.2,0.9,0.6l0,0c0-0.3,0.1-0.6,0.1-0.8l0.3-1.2h0.8l-1.1,5.3h-0.6l0.1-0.6l0,0
	c-0.2,0.2-0.4,0.4-0.6,0.5c-0.2,0.1-0.4,0.2-0.6,0.2c-0.3,0-0.6-0.1-0.8-0.3c-0.2-0.3-0.3-0.6-0.3-1c0-0.4,0.1-0.9,0.2-1.3
	c0.1-0.4,0.4-0.7,0.7-0.9C351.3,45.7,351.6,45.6,351.9,45.6z M351.5,48.8c0.2,0,0.4-0.1,0.5-0.3c0.2-0.2,0.4-0.5,0.4-0.7
	c0.1-0.3,0.2-0.6,0.2-0.9c0-0.2,0-0.4-0.1-0.5c-0.1-0.1-0.3-0.2-0.5-0.2c-0.2,0-0.4,0.1-0.5,0.3c-0.2,0.2-0.3,0.5-0.4,0.7
	c-0.1,0.3-0.2,0.6-0.1,0.9C351,48.6,351.2,48.8,351.5,48.8z"/>
<path class="st4" d="M355.9,49.5c-0.2,0-0.4,0-0.6-0.2c-0.2-0.1-0.3-0.3-0.4-0.5l0,0l-0.2,0.5h-0.6l1.1-5.3h0.8l-0.2,1.1
	c0,0.2-0.1,0.3-0.1,0.5s-0.1,0.4-0.1,0.5l0,0c0.2-0.2,0.3-0.4,0.6-0.5c0.2-0.1,0.4-0.1,0.5-0.1c0.3,0,0.6,0.1,0.8,0.3
	c0.2,0.3,0.3,0.6,0.3,1c0,0.4-0.1,0.9-0.2,1.3c-0.1,0.4-0.4,0.7-0.7,1C356.5,49.4,356.2,49.5,355.9,49.5z M356.3,46.2
	c-0.2,0-0.4,0.1-0.5,0.3c-0.2,0.2-0.4,0.4-0.5,0.7c-0.1,0.3-0.2,0.6-0.2,0.9c0,0.2,0,0.4,0.2,0.5c0.1,0.1,0.3,0.2,0.5,0.2
	c0.2,0,0.4-0.1,0.5-0.3c0.2-0.2,0.3-0.4,0.4-0.7c0.1-0.3,0.2-0.6,0.1-0.9C356.9,46.5,356.7,46.2,356.3,46.2L356.3,46.2z"/>
<path class="st4" d="M358.4,45.6h0.8l0.2,1.8c0,0.1,0,0.3,0.1,0.6c0,0.2,0,0.5,0,0.6l0,0c0.2-0.5,0.4-0.8,0.5-1.1l1-2h0.9l-2.3,4.4
	c-0.2,0.3-0.4,0.6-0.7,0.8c-0.2,0.2-0.5,0.3-0.9,0.3c-0.2,0-0.3,0-0.5-0.1v-0.6c0.1,0,0.3,0.1,0.4,0c0.2,0,0.3-0.1,0.5-0.2
	c0.2-0.1,0.3-0.3,0.4-0.5l0.2-0.3L358.4,45.6z"/>
<path class="st4" d="M363.6,45.6c0.4,0,0.8,0.2,0.9,0.6l0,0c0-0.3,0.1-0.6,0.1-0.8l0.3-1.2h0.8l-1.1,5.3h-0.6l0.1-0.6l0,0
	c-0.2,0.2-0.4,0.4-0.6,0.5c-0.2,0.1-0.4,0.2-0.6,0.2c-0.3,0-0.6-0.1-0.8-0.3c-0.2-0.3-0.3-0.6-0.3-1c0-0.4,0.1-0.9,0.2-1.3
	c0.1-0.4,0.4-0.7,0.6-0.9C362.9,45.7,363.2,45.6,363.6,45.6z M363.1,48.8c0.2,0,0.4-0.1,0.6-0.3c0.2-0.2,0.3-0.5,0.4-0.7
	c0.1-0.3,0.2-0.6,0.2-0.9c0-0.2,0-0.4-0.1-0.5c-0.1-0.1-0.3-0.2-0.5-0.2c-0.2,0-0.4,0.1-0.5,0.3c-0.2,0.2-0.3,0.5-0.4,0.7
	c-0.1,0.3-0.2,0.6-0.1,0.9C362.6,48.6,362.8,48.8,363.1,48.8L363.1,48.8z"/>
<path class="st4" d="M367.3,49.5c-0.4,0-0.8-0.1-1-0.4c-0.3-0.3-0.4-0.7-0.4-1.1c0-0.4,0.1-0.9,0.3-1.3c0.2-0.4,0.4-0.7,0.7-0.9
	c0.3-0.2,0.6-0.3,1-0.3c0.3,0,0.6,0.1,0.9,0.2c0.2,0.2,0.3,0.4,0.3,0.7c0,0.4-0.2,0.8-0.6,1c-0.5,0.3-1.1,0.4-1.6,0.3h-0.1v0.2
	c0,0.2,0.1,0.4,0.2,0.6c0.2,0.1,0.4,0.2,0.6,0.2c0.2,0,0.3,0,0.5-0.1c0.2-0.1,0.4-0.1,0.6-0.2v0.6C368.1,49.4,367.7,49.5,367.3,49.5
	L367.3,49.5z M367.8,46.2c-0.2,0-0.5,0.1-0.6,0.3c-0.2,0.2-0.3,0.5-0.4,0.8h0.1c0.3,0,0.7,0,1-0.2c0.2-0.1,0.4-0.3,0.4-0.5
	c0-0.1,0-0.2-0.1-0.3C368,46.2,367.9,46.2,367.8,46.2z"/>
<path class="st4" d="M371.9,48.3c0,0.4-0.1,0.7-0.4,0.9c-0.3,0.2-0.7,0.3-1.1,0.3c-0.4,0-0.8-0.1-1.1-0.2v-0.7
	c0.3,0.2,0.7,0.3,1.1,0.3c0.2,0,0.4,0,0.5-0.1c0.1-0.1,0.2-0.2,0.2-0.4c0-0.1,0-0.2-0.1-0.3c-0.1-0.1-0.3-0.2-0.5-0.3
	c-0.2-0.1-0.4-0.3-0.6-0.5c-0.1-0.2-0.2-0.4-0.2-0.6c0-0.3,0.1-0.6,0.4-0.8c0.3-0.2,0.6-0.3,1-0.3c0.4,0,0.8,0.1,1.2,0.3l-0.3,0.6
	c-0.3-0.2-0.6-0.2-0.9-0.3c-0.1,0-0.3,0-0.4,0.1c-0.1,0.1-0.2,0.2-0.2,0.3c0,0.1,0,0.2,0.1,0.3c0.1,0.1,0.3,0.2,0.5,0.3
	c0.2,0.1,0.4,0.2,0.5,0.3c0.1,0.1,0.2,0.2,0.2,0.3C371.9,48,371.9,48.1,371.9,48.3z"/>
<path class="st4" d="M375.5,49.5c-0.3,0-0.6-0.1-0.8-0.3c-0.2-0.3-0.3-0.6-0.3-1c0-0.4,0.1-0.9,0.2-1.3c0.1-0.4,0.4-0.7,0.7-1
	c0.2-0.2,0.6-0.4,0.9-0.3c0.2,0,0.4,0,0.6,0.2c0.2,0.1,0.3,0.3,0.4,0.5l0,0l0.2-0.5h0.6l-0.8,3.8h-0.6l0.1-0.6l0,0
	C376.5,49.2,376,49.4,375.5,49.5z M375.8,48.8c0.2,0,0.4-0.1,0.5-0.3c0.2-0.2,0.3-0.4,0.4-0.7c0.1-0.3,0.2-0.7,0.2-1
	c0-0.2,0-0.4-0.2-0.5c-0.1-0.1-0.3-0.2-0.4-0.2c-0.2,0-0.4,0.1-0.5,0.3c-0.2,0.2-0.3,0.5-0.4,0.7c-0.1,0.3-0.2,0.6-0.1,0.9
	c0,0.2,0,0.4,0.1,0.5C375.5,48.8,375.7,48.8,375.8,48.8z"/>
<path class="st4" d="M378,51.1c-0.2,0-0.3,0-0.5-0.1v-0.7c0.1,0,0.3,0.1,0.4,0.1c0.3,0,0.5-0.2,0.6-0.7l0.7-3.5h-0.6l0.1-0.4
	l0.7-0.3l0.1-0.3c0-0.4,0.2-0.7,0.5-1c0.2-0.2,0.6-0.3,0.9-0.3c0.3,0,0.5,0,0.7,0.2l-0.2,0.6c-0.1-0.1-0.3-0.1-0.5-0.1
	c-0.1,0-0.3,0-0.4,0.2c-0.1,0.1-0.2,0.3-0.2,0.5l-0.1,0.3h0.8l-0.1,0.6H380l-0.8,3.6c-0.1,0.4-0.2,0.7-0.5,1
	C378.6,51,378.3,51.1,378,51.1z"/>
<path class="st4" d="M386.9,46.4c0,0.6-0.1,1.1-0.3,1.6c-0.2,0.4-0.6,0.8-1,1.1c-0.5,0.3-1,0.4-1.5,0.4h-1.4l1.1-5h1.3
	c0.9-0.1,1.8,0.5,1.9,1.5C386.9,46.1,386.9,46.2,386.9,46.4L386.9,46.4z M384.1,48.7c0.8,0,1.5-0.4,1.8-1.1c0.2-0.4,0.2-0.8,0.2-1.2
	c0-0.4-0.1-0.7-0.3-1c-0.2-0.2-0.5-0.4-0.9-0.3h-0.5l-0.8,3.6L384.1,48.7z"/>
<path class="st4" d="M388.5,49.5c-0.3,0-0.6-0.1-0.8-0.3c-0.2-0.3-0.3-0.6-0.3-1c0-0.4,0.1-0.9,0.2-1.3c0.1-0.4,0.3-0.7,0.6-1
	c0.3-0.2,0.6-0.4,0.9-0.3c0.2,0,0.4,0,0.6,0.2c0.2,0.1,0.3,0.3,0.4,0.5l0,0l0.2-0.5h0.6l-0.8,3.8h-0.6l0.1-0.6l0,0
	C389.4,49.2,389,49.4,388.5,49.5z M388.8,48.8c0.2,0,0.4-0.1,0.5-0.3c0.2-0.2,0.3-0.4,0.4-0.7c0.1-0.3,0.2-0.7,0.2-1
	c0-0.2-0.1-0.3-0.2-0.5c-0.1-0.1-0.3-0.2-0.4-0.2c-0.2,0-0.4,0.1-0.5,0.3c-0.2,0.2-0.3,0.5-0.4,0.7c-0.1,0.3-0.2,0.6-0.2,0.9
	c0,0.2,0,0.4,0.1,0.5C388.5,48.8,388.7,48.8,388.8,48.8z"/>
<path class="st4" d="M393.6,49.4l0.5-2.3c0-0.1,0.1-0.3,0.1-0.5c0-0.2-0.1-0.4-0.3-0.4c0,0-0.1,0-0.1,0c-0.2,0-0.4,0.1-0.5,0.2
	c-0.2,0.2-0.3,0.3-0.4,0.6c-0.1,0.3-0.2,0.5-0.3,0.8l-0.3,1.6h-0.8l0.8-3.8h0.6l-0.1,0.7l0,0c0.2-0.2,0.4-0.4,0.6-0.6
	c0.2-0.1,0.4-0.2,0.7-0.2c0.3,0,0.5,0.1,0.7,0.3c0.2,0.2,0.3,0.5,0.2,0.7c0,0.2,0,0.4-0.1,0.6l-0.5,2.2L393.6,49.4z"/>
<path class="st4" d="M398,48.3c0,0.4-0.1,0.7-0.4,0.9c-0.3,0.2-0.7,0.3-1.1,0.3c-0.4,0-0.8-0.1-1.1-0.2v-0.7
	c0.3,0.2,0.7,0.3,1.1,0.3c0.2,0,0.4,0,0.5-0.1c0.1-0.1,0.2-0.2,0.2-0.4c0-0.1,0-0.2-0.1-0.3c-0.1-0.1-0.3-0.2-0.5-0.3
	c-0.2-0.1-0.4-0.3-0.6-0.5c-0.1-0.2-0.2-0.4-0.2-0.6c0-0.3,0.1-0.6,0.4-0.8c0.3-0.2,0.6-0.3,1-0.3c0.4,0,0.8,0.1,1.2,0.3l-0.3,0.6
	c-0.3-0.2-0.6-0.2-0.9-0.3c-0.1,0-0.3,0-0.4,0.1c-0.1,0.1-0.2,0.2-0.2,0.3c0,0.1,0,0.2,0.1,0.3c0.1,0.1,0.3,0.2,0.5,0.3
	c0.2,0.1,0.4,0.2,0.5,0.3c0.1,0.1,0.2,0.2,0.2,0.3C398,48,398,48.1,398,48.3z"/>
<path class="st4" d="M401.5,45.6h0.9l-1.7,1.7l1,2.1h-0.9l-0.7-1.6l-0.5,0.3l-0.3,1.3h-0.8l1.1-5.3h0.8c-0.3,1.4-0.5,2.3-0.5,2.5
	s-0.1,0.5-0.2,0.8l0,0L401.5,45.6z"/>
<path class="st4" d="M403.9,49.5c-0.4,0-0.8-0.1-1-0.4c-0.3-0.3-0.4-0.7-0.4-1.1c0-0.4,0.1-0.9,0.3-1.3c0.2-0.4,0.4-0.7,0.7-0.9
	c0.3-0.2,0.6-0.3,1-0.3c0.3,0,0.6,0.1,0.9,0.2c0.2,0.2,0.3,0.4,0.3,0.7c0,0.4-0.2,0.8-0.6,1c-0.5,0.3-1.1,0.4-1.6,0.3h-0.1v0.2
	c0,0.2,0.1,0.4,0.2,0.6c0.2,0.1,0.4,0.2,0.6,0.2c0.2,0,0.3,0,0.5-0.1c0.2-0.1,0.4-0.1,0.6-0.2v0.6c-0.2,0.1-0.4,0.2-0.6,0.2
	C404.3,49.5,404.1,49.5,403.9,49.5z M404.4,46.2c-0.2,0-0.5,0.1-0.6,0.3c-0.2,0.2-0.3,0.5-0.4,0.8h0.1c0.3,0,0.7,0,1-0.2
	c0.2-0.1,0.4-0.3,0.4-0.5c0-0.1,0-0.2-0.1-0.3C404.7,46.2,404.6,46.2,404.4,46.2L404.4,46.2z"/>
<path class="st4" d="M408.6,49.4h-0.8l1.2-5.3h0.8L408.6,49.4z"/>
<path class="st4" d="M410.6,49.4h-0.8l0.8-3.8h0.8L410.6,49.4z M410.7,44.7c0-0.1,0-0.3,0.1-0.4c0.1-0.1,0.2-0.2,0.4-0.1
	c0.1,0,0.2,0,0.3,0.1c0.1,0.1,0.1,0.2,0.1,0.3c0,0.1,0,0.3-0.1,0.4c-0.1,0.1-0.2,0.1-0.4,0.1c-0.1,0-0.2,0-0.3-0.1
	C410.8,44.9,410.7,44.8,410.7,44.7z"/>
<path class="st4" d="M413.2,49.5c-0.4,0-0.7-0.1-1-0.4c-0.3-0.3-0.4-0.6-0.4-1c0-0.4,0.1-0.9,0.2-1.3c0.2-0.4,0.4-0.7,0.7-0.9
	c0.3-0.2,0.6-0.3,1-0.3c0.3,0,0.7,0.1,1,0.2l-0.2,0.6c-0.2-0.1-0.5-0.2-0.8-0.2c-0.4,0-0.7,0.2-0.9,0.5c-0.2,0.4-0.4,0.8-0.4,1.3
	c0,0.2,0.1,0.4,0.2,0.6c0.1,0.1,0.3,0.2,0.5,0.2c0.2,0,0.3,0,0.5-0.1c0.2-0.1,0.3-0.1,0.4-0.2v0.7C414,49.4,413.6,49.5,413.2,49.5z"
	/>
<path class="st4" d="M416.5,49.5c-0.4,0-0.7-0.1-1-0.4c-0.3-0.3-0.4-0.7-0.4-1.1c0-0.4,0.1-0.9,0.3-1.3c0.2-0.4,0.4-0.7,0.7-0.9
	c0.3-0.2,0.6-0.3,1-0.3c0.3,0,0.6,0.1,0.9,0.2c0.2,0.2,0.3,0.4,0.3,0.7c0,0.4-0.2,0.8-0.6,1c-0.5,0.3-1.1,0.4-1.6,0.3h-0.1v0.2
	c0,0.2,0.1,0.4,0.2,0.6c0.2,0.1,0.4,0.2,0.6,0.2c0.2,0,0.3,0,0.5-0.1c0.2-0.1,0.4-0.1,0.6-0.2v0.6c-0.2,0.1-0.4,0.2-0.6,0.2
	C417,49.5,416.7,49.5,416.5,49.5z M417,46.2c-0.2,0-0.5,0.1-0.6,0.3c-0.2,0.2-0.3,0.5-0.4,0.8h0.1c0.3,0,0.7,0,1-0.2
	c0.2-0.1,0.4-0.3,0.4-0.5c0-0.1,0-0.2-0.1-0.3C417.3,46.2,417.2,46.2,417,46.2z"/>
<path class="st4" d="M420.9,49.4l0.5-2.3c0-0.1,0.1-0.3,0.1-0.5c0-0.2-0.1-0.4-0.3-0.4c0,0-0.1,0-0.1,0c-0.2,0-0.4,0.1-0.5,0.2
	c-0.2,0.2-0.4,0.4-0.5,0.6c-0.1,0.3-0.2,0.5-0.3,0.8l-0.3,1.6h-0.8l0.8-3.8h0.6l-0.1,0.7l0,0c0.2-0.2,0.4-0.4,0.6-0.6
	c0.2-0.1,0.4-0.2,0.7-0.2c0.3,0,0.5,0.1,0.7,0.3c0.2,0.2,0.3,0.5,0.2,0.7c0,0.2,0,0.4-0.1,0.6l-0.5,2.2L420.9,49.4z"/>
<path class="st4" d="M425.3,48.3c0,0.4-0.1,0.7-0.4,0.9c-0.3,0.2-0.7,0.3-1.1,0.3c-0.4,0-0.8-0.1-1.1-0.2v-0.7
	c0.3,0.2,0.7,0.3,1.1,0.3c0.2,0,0.4,0,0.5-0.1c0.1-0.1,0.2-0.2,0.2-0.4c0-0.1,0-0.2-0.1-0.3c-0.1-0.1-0.3-0.2-0.5-0.3
	c-0.2-0.1-0.4-0.3-0.6-0.5c-0.1-0.2-0.2-0.4-0.2-0.6c0-0.3,0.1-0.6,0.4-0.8c0.3-0.2,0.6-0.3,1-0.3c0.4,0,0.8,0.1,1.2,0.3l-0.3,0.6
	c-0.3-0.2-0.6-0.2-0.9-0.3c-0.1,0-0.3,0-0.4,0.1c-0.1,0.1-0.2,0.2-0.1,0.3c0,0.1,0,0.2,0.1,0.3c0.1,0.1,0.3,0.2,0.5,0.3
	c0.2,0.1,0.4,0.2,0.5,0.3c0.1,0.1,0.2,0.2,0.2,0.3C425.2,48,425.3,48.1,425.3,48.3z"/>
<path class="st4" d="M430.7,48c0,0.4-0.2,0.9-0.5,1.1c-0.4,0.3-0.9,0.4-1.4,0.4c-0.4,0-0.8-0.1-1.2-0.2v-0.8
	c0.4,0.2,0.8,0.3,1.2,0.3c0.3,0,0.5-0.1,0.7-0.2c0.2-0.1,0.3-0.3,0.3-0.5c0-0.2,0-0.3-0.1-0.4c-0.2-0.2-0.4-0.3-0.6-0.5
	c-0.2-0.1-0.4-0.3-0.5-0.4c-0.1-0.1-0.2-0.3-0.3-0.4c-0.1-0.2-0.1-0.3-0.1-0.5c0-0.3,0.1-0.5,0.2-0.8c0.1-0.2,0.4-0.4,0.6-0.5
	c0.3-0.1,0.6-0.2,0.9-0.2c0.5,0,0.9,0.1,1.3,0.3l-0.3,0.7c-0.3-0.2-0.7-0.2-1-0.3c-0.2,0-0.4,0.1-0.6,0.2c-0.1,0.1-0.2,0.3-0.2,0.5
	c0,0.1,0,0.2,0,0.3c0,0.1,0.1,0.2,0.2,0.2c0.1,0.1,0.3,0.2,0.5,0.3c0.3,0.2,0.5,0.4,0.7,0.6C430.7,47.5,430.7,47.7,430.7,48z"/>
<path class="st4" d="M433.1,49.5c-0.4,0-0.8-0.2-0.9-0.6l0,0c0,0.2,0,0.4-0.1,0.6l-0.3,1.6H431l1.1-5.5h0.6l-0.1,0.7l0,0
	c0.3-0.4,0.7-0.7,1.2-0.7c0.3,0,0.6,0.1,0.8,0.3c0.2,0.3,0.3,0.6,0.3,1c0,0.4-0.1,0.9-0.2,1.3c-0.1,0.4-0.4,0.7-0.6,1
	C433.8,49.4,433.5,49.5,433.1,49.5z M433.6,46.2c-0.2,0-0.4,0.1-0.5,0.3c-0.2,0.2-0.4,0.5-0.5,0.7c-0.1,0.3-0.2,0.6-0.2,0.9
	c0,0.2,0,0.4,0.2,0.5c0.1,0.1,0.3,0.2,0.5,0.2c0.2,0,0.4-0.1,0.5-0.3c0.2-0.2,0.3-0.4,0.4-0.7c0.1-0.3,0.2-0.6,0.1-0.9
	C434.1,46.5,434,46.2,433.6,46.2z"/>
<path class="st4" d="M436.2,49.4h-0.8l0.8-3.8h0.8L436.2,49.4z M436.4,44.7c0-0.1,0-0.3,0.1-0.4c0.1-0.1,0.2-0.2,0.4-0.1
	c0.1,0,0.2,0,0.3,0.1c0.1,0.1,0.1,0.2,0.1,0.3c0,0.1,0,0.3-0.1,0.4c-0.2,0.2-0.5,0.2-0.7,0C436.4,44.9,436.4,44.8,436.4,44.7z"/>
<path class="st4" d="M438.1,49.4h-0.8l1.1-5.3h0.8L438.1,49.4z"/>
<path class="st4" d="M443.9,44.2l-0.4,1.2l1.4-0.1v0.7l-1.2-0.2l0.6,1.2l-0.7,0.2l-0.4-1.3l-0.8,1.1l-0.5-0.5l1-0.9l-1.2-0.3
	l0.2-0.7l1.2,0.6l0.1-1.3L443.9,44.2z"/>
<path class="st4" d="M446.2,47.4l-0.4,2H445l1.1-5h1.1c0.4,0,0.8,0.1,1.2,0.3c0.3,0.2,0.4,0.6,0.4,1c0,0.4-0.1,0.7-0.3,1
	c-0.2,0.3-0.5,0.5-0.9,0.6l0.9,2.2h-0.9l-0.7-2L446.2,47.4z M446.4,46.8h0.4c0.3,0,0.6-0.1,0.9-0.3c0.2-0.2,0.3-0.4,0.3-0.7
	c0-0.2-0.1-0.4-0.2-0.5c-0.2-0.1-0.4-0.2-0.6-0.2h-0.4L446.4,46.8z"/>
<path class="st4" d="M450.6,49.5c-0.4,0-0.8-0.1-1-0.4c-0.3-0.3-0.4-0.7-0.4-1.1c0-0.4,0.1-0.9,0.3-1.3c0.2-0.4,0.4-0.7,0.7-0.9
	c0.3-0.2,0.6-0.3,1-0.3c0.3,0,0.6,0.1,0.9,0.2c0.2,0.2,0.3,0.4,0.3,0.7c0,0.4-0.2,0.8-0.6,1c-0.5,0.3-1.1,0.4-1.6,0.3H450v0.2
	c0,0.2,0.1,0.4,0.2,0.6c0.2,0.1,0.4,0.2,0.6,0.2c0.2,0,0.3,0,0.5-0.1c0.2-0.1,0.4-0.1,0.6-0.2v0.6c-0.2,0.1-0.4,0.2-0.6,0.2
	C451,49.5,450.8,49.5,450.6,49.5z M451.2,46.2c-0.2,0-0.5,0.1-0.6,0.3c-0.2,0.2-0.3,0.5-0.4,0.8h0.1c0.3,0,0.7,0,1-0.2
	c0.2-0.1,0.4-0.3,0.4-0.5c0-0.1,0-0.2-0.1-0.3C451.4,46.2,451.3,46.2,451.2,46.2z"/>
<path class="st4" d="M456.5,45.6l-0.1,0.5l-0.7,0.1c0.1,0.1,0.1,0.3,0.1,0.5c0,0.4-0.1,0.8-0.4,1c-0.3,0.3-0.7,0.4-1.1,0.4
	c-0.1,0-0.2,0-0.3,0c-0.3,0.1-0.4,0.2-0.4,0.4c0,0.1,0,0.1,0.1,0.2c0.1,0,0.2,0.1,0.3,0.1h0.4c0.3,0,0.6,0.1,0.9,0.3
	c0.2,0.2,0.3,0.4,0.3,0.6c0,0.4-0.2,0.8-0.5,1c-0.4,0.3-1,0.4-1.5,0.4c-0.4,0-0.8-0.1-1.1-0.3c-0.2-0.2-0.4-0.4-0.4-0.7
	c0-0.2,0.1-0.4,0.2-0.6c0.2-0.2,0.5-0.4,0.8-0.4c-0.2-0.1-0.3-0.2-0.3-0.4c0-0.2,0.1-0.3,0.2-0.4c0.1-0.1,0.3-0.2,0.5-0.3
	c-0.3-0.2-0.5-0.5-0.5-0.9c0-0.4,0.1-0.8,0.4-1.1c0.3-0.3,0.7-0.4,1.1-0.4c0.2,0,0.4,0,0.5,0.1L456.5,45.6z M453.7,49.4
	c-0.2,0-0.4,0.1-0.6,0.2c-0.1,0.1-0.2,0.3-0.2,0.4c0,0.1,0.1,0.3,0.2,0.4c0.2,0.1,0.4,0.1,0.6,0.1c0.3,0,0.6,0,0.9-0.2
	c0.2-0.1,0.3-0.3,0.3-0.5c0-0.1-0.1-0.2-0.2-0.3c-0.2-0.1-0.4-0.1-0.5-0.1L453.7,49.4z M454.6,46.1c-0.1,0-0.3,0-0.4,0.1
	c-0.1,0.1-0.2,0.2-0.3,0.4c-0.1,0.2-0.1,0.3-0.1,0.5c0,0.1,0,0.3,0.1,0.4c0.1,0.1,0.2,0.1,0.3,0.1c0.1,0,0.3,0,0.4-0.1
	c0.1-0.1,0.2-0.2,0.2-0.4c0.1-0.2,0.1-0.3,0.1-0.5C455,46.3,454.9,46.1,454.6,46.1z"/>
<path class="st4" d="M457.2,49.4h-0.8l1.1-5.3h0.8L457.2,49.4z"/>
<path class="st4" d="M459.9,49.5c-0.7,0.1-1.4-0.5-1.4-1.2c0-0.1,0-0.2,0-0.2c0-0.4,0.1-0.9,0.3-1.3c0.2-0.4,0.4-0.7,0.7-0.9
	c0.3-0.2,0.6-0.3,1-0.3c0.3,0,0.6,0.1,0.9,0.2c0.2,0.2,0.3,0.4,0.3,0.7c0,0.4-0.2,0.8-0.6,1c-0.5,0.3-1.1,0.4-1.6,0.3h-0.1v0.2
	c0,0.2,0.1,0.4,0.2,0.6c0.2,0.1,0.4,0.2,0.6,0.2c0.2,0,0.3,0,0.5-0.1c0.2-0.1,0.4-0.1,0.6-0.2v0.6C460.7,49.4,460.3,49.5,459.9,49.5
	L459.9,49.5z M460.4,46.2c-0.2,0-0.5,0.1-0.6,0.3c-0.2,0.2-0.3,0.5-0.4,0.8h0.1c0.3,0,0.7,0,1-0.2c0.2-0.1,0.4-0.3,0.4-0.5
	c0-0.1,0-0.2-0.1-0.3C460.6,46.2,460.5,46.2,460.4,46.2z"/>
<path class="st4" d="M464.5,45.6c0.1,0,0.2,0,0.4,0l-0.2,0.8c-0.1,0-0.2,0-0.4,0c-0.3,0-0.6,0.1-0.8,0.4c-0.2,0.3-0.4,0.6-0.5,1
	l-0.4,1.7H462l0.8-3.8h0.6l-0.1,0.7l0,0c0.1-0.2,0.3-0.4,0.6-0.6C464.1,45.6,464.3,45.6,464.5,45.6z"/>
<path class="st4" d="M466.7,48.2c0-0.3,0.1-0.6,0.3-0.9c0.3-0.3,0.6-0.5,1-0.7c-0.2-0.3-0.3-0.6-0.3-1c0-0.4,0.1-0.7,0.4-1
	c0.3-0.2,0.6-0.4,1-0.4c0.3,0,0.6,0.1,0.9,0.3c0.2,0.2,0.3,0.5,0.3,0.7c0,0.3-0.1,0.6-0.3,0.8c-0.3,0.3-0.6,0.5-1,0.7l0.8,1.1
	c0.3-0.3,0.5-0.6,0.6-1h0.8c-0.2,0.6-0.6,1.1-1,1.5l0.7,1h-1l-0.3-0.4c-0.2,0.2-0.5,0.3-0.7,0.4c-0.3,0.1-0.5,0.1-0.8,0.1
	c-0.4,0-0.7-0.1-1-0.3C466.8,48.9,466.7,48.6,466.7,48.2z M468.2,48.8c0.2,0,0.3,0,0.5-0.1c0.2-0.1,0.3-0.2,0.5-0.3l-0.9-1.3
	c-0.2,0.1-0.4,0.3-0.6,0.5c-0.1,0.2-0.2,0.3-0.2,0.5c0,0.2,0.1,0.4,0.2,0.5C467.9,48.8,468,48.8,468.2,48.8z M469,45
	c-0.2,0-0.3,0.1-0.5,0.2c-0.1,0.1-0.2,0.3-0.2,0.5c0,0.2,0.1,0.5,0.2,0.7c0.2-0.1,0.5-0.3,0.7-0.5c0.1-0.1,0.2-0.3,0.2-0.4
	c0-0.1,0-0.3-0.1-0.3C469.2,45,469.1,45,469,45z"/>
<path class="st4" d="M473.9,49.4l-0.5-3.8h0.8l0.2,2c0,0.4,0,0.7,0,1l0,0l0.2-0.6c0.1-0.2,0.2-0.4,0.2-0.5l1.1-2h0.9l-2,3.8
	L473.9,49.4z"/>
<path class="st4" d="M477.5,49.4h-0.8l0.8-3.8h0.8L477.5,49.4z M477.7,44.7c0-0.1,0-0.3,0.1-0.4c0.1-0.1,0.2-0.2,0.4-0.1
	c0.1,0,0.2,0,0.3,0.1c0.1,0.1,0.1,0.2,0.1,0.3c0,0.1,0,0.3-0.1,0.4c-0.1,0.1-0.2,0.1-0.4,0.1c-0.1,0-0.2,0-0.3-0.1
	C477.7,44.9,477.6,44.8,477.7,44.7z"/>
<path class="st4" d="M479.4,49.4h-0.8l1.1-5.3h0.8L479.4,49.4z"/>
<path class="st4" d="M483.4,45.6h0.9l-1.6,1.7l1,2.1h-0.9l-0.7-1.6l-0.5,0.3l-0.3,1.3h-0.8l1.1-5.3h0.8c-0.3,1.4-0.5,2.3-0.5,2.5
	s-0.1,0.5-0.2,0.8l0,0L483.4,45.6z"/>
<path class="st4" d="M485.4,49.5c-0.3,0-0.6-0.1-0.8-0.3c-0.2-0.3-0.3-0.6-0.3-1c0-0.4,0.1-0.9,0.2-1.3c0.1-0.4,0.4-0.7,0.6-1
	c0.3-0.2,0.6-0.4,0.9-0.3c0.2,0,0.4,0,0.6,0.2c0.2,0.1,0.3,0.3,0.4,0.5l0,0l0.2-0.5h0.6l-0.8,3.8h-0.6l0.1-0.6l0,0
	C486.4,49.2,485.9,49.5,485.4,49.5z M485.7,48.8c0.2,0,0.4-0.1,0.5-0.3c0.2-0.2,0.3-0.4,0.4-0.7c0.1-0.3,0.2-0.7,0.2-1
	c0-0.2-0.1-0.3-0.2-0.5c-0.1-0.1-0.3-0.2-0.4-0.2c-0.2,0-0.4,0.1-0.5,0.3c-0.2,0.2-0.3,0.5-0.4,0.7c-0.1,0.3-0.2,0.6-0.2,0.9
	c0,0.2,0,0.4,0.1,0.5C485.4,48.8,485.6,48.8,485.7,48.8z M487.5,44.4c0,0.2-0.1,0.4-0.2,0.6c-0.2,0.1-0.4,0.2-0.6,0.2
	c-0.2,0-0.4-0.1-0.6-0.2c-0.1-0.1-0.2-0.4-0.2-0.6c0-0.2,0.1-0.4,0.2-0.6c0.2-0.1,0.4-0.2,0.6-0.2c0.2,0,0.4,0.1,0.6,0.2
	C487.4,44,487.5,44.2,487.5,44.4z M487,44.4c0-0.1,0-0.2-0.1-0.3c-0.1-0.1-0.2-0.1-0.3-0.1c-0.2,0-0.3,0.1-0.4,0.3c0,0,0,0,0,0.1
	c0,0.1,0,0.2,0.1,0.3c0.1,0.1,0.2,0.1,0.3,0.1c0.1,0,0.2,0,0.3-0.1C487,44.6,487,44.5,487,44.4L487,44.4z"/>
<path class="st4" d="M490.9,45.6c0.1,0,0.2,0,0.4,0l-0.2,0.8c-0.1,0-0.2,0-0.4,0c-0.3,0-0.6,0.1-0.8,0.4c-0.2,0.3-0.4,0.6-0.5,1
	l-0.4,1.7h-0.8l0.8-3.8h0.6l-0.1,0.7l0,0c0.1-0.2,0.3-0.4,0.6-0.6C490.4,45.6,490.6,45.6,490.9,45.6z"/>
<path class="st4" d="M496.7,45.6l-0.1,0.5l-0.7,0.1c0.1,0.1,0.1,0.3,0.1,0.5c0,0.4-0.1,0.8-0.4,1c-0.3,0.3-0.7,0.4-1.1,0.4
	c-0.1,0-0.2,0-0.3,0c-0.2,0.1-0.4,0.2-0.4,0.4c0,0.1,0,0.2,0.1,0.2c0.1,0,0.2,0.1,0.3,0.1h0.4c0.3,0,0.6,0.1,0.9,0.3
	c0.2,0.2,0.3,0.4,0.2,0.6c0,0.4-0.2,0.8-0.5,1c-0.4,0.3-1,0.4-1.5,0.4c-0.4,0-0.7-0.1-1.1-0.3c-0.2-0.1-0.4-0.4-0.4-0.7
	c0-0.2,0.1-0.4,0.2-0.6c0.2-0.2,0.5-0.4,0.8-0.4c-0.2-0.1-0.3-0.2-0.3-0.4c0-0.2,0.1-0.3,0.2-0.4c0.1-0.1,0.3-0.3,0.5-0.3
	c-0.3-0.2-0.5-0.5-0.5-0.9c0-0.4,0.1-0.8,0.4-1.1c0.3-0.3,0.7-0.4,1.1-0.4c0.2,0,0.4,0,0.5,0.1L496.7,45.6z M493.9,49.4
	c-0.2,0-0.4,0.1-0.6,0.2c-0.1,0.1-0.2,0.3-0.2,0.4c0,0.1,0.1,0.3,0.2,0.4c0.2,0.1,0.4,0.1,0.6,0.1c0.3,0,0.6,0,0.9-0.2
	c0.2-0.1,0.3-0.3,0.3-0.5c0-0.1-0.1-0.2-0.2-0.3c-0.2-0.1-0.3-0.1-0.5-0.1L493.9,49.4z M494.8,46.1c-0.1,0-0.3,0-0.4,0.1
	c-0.1,0.1-0.2,0.2-0.3,0.4c-0.1,0.2-0.1,0.3-0.1,0.5c0,0.1,0,0.3,0.1,0.4c0.1,0.1,0.2,0.1,0.4,0.1c0.1,0,0.3,0,0.4-0.1
	c0.1-0.1,0.2-0.2,0.2-0.4c0.1-0.2,0.1-0.3,0.1-0.5C495.3,46.3,495.1,46.1,494.8,46.1L494.8,46.1z"/>
<path class="st4" d="M500.5,49.5c-0.4,0-0.8-0.1-1-0.5l-0.1,0.4h-0.5l0.1-0.6l0,0c-0.2,0.2-0.3,0.4-0.6,0.5
	c-0.2,0.1-0.4,0.2-0.6,0.2c-0.3,0-0.5-0.1-0.7-0.3c-0.2-0.3-0.3-0.6-0.3-1c0-0.4,0.1-0.9,0.2-1.3c0.1-0.4,0.4-0.7,0.6-1
	c0.2-0.2,0.6-0.3,0.9-0.3c0.2,0,0.4,0,0.5,0.1c0.2,0.1,0.3,0.3,0.4,0.5l0,0l0.2-0.5h0.5l-0.1,0.4c0.1-0.1,0.3-0.3,0.5-0.3
	c0.2-0.1,0.4-0.1,0.6-0.1c0.3,0,0.5,0.1,0.8,0.3c0.2,0.2,0.3,0.4,0.3,0.7c0,0.4-0.2,0.8-0.6,1c-0.5,0.3-1.1,0.4-1.6,0.3h-0.1V48
	c0,0.2,0.1,0.4,0.2,0.6c0.2,0.1,0.4,0.2,0.6,0.2c0.4,0,0.7-0.1,1-0.3v0.6C501.4,49.4,500.9,49.5,500.5,49.5z M498.1,48.8
	c0.2,0,0.4-0.1,0.5-0.3c0.2-0.2,0.3-0.5,0.4-0.7c0.1-0.3,0.2-0.6,0.2-0.9c0-0.2,0-0.4-0.1-0.5c-0.1-0.1-0.2-0.2-0.4-0.2
	c-0.2,0-0.4,0.1-0.5,0.3c-0.2,0.2-0.3,0.5-0.4,0.7c-0.1,0.3-0.1,0.6-0.1,0.9c0,0.2,0,0.4,0.1,0.5C497.8,48.8,497.9,48.8,498.1,48.8
	L498.1,48.8z M501.1,46.2c-0.2,0-0.5,0.1-0.6,0.3c-0.2,0.2-0.4,0.5-0.4,0.8h0.1c0.3,0,0.7,0,1-0.2c0.2-0.1,0.4-0.3,0.4-0.5
	c0-0.1,0-0.2-0.1-0.3C501.2,46.2,501.1,46.2,501.1,46.2L501.1,46.2z"/>
<path class="st4" d="M503.3,49.4h-0.8l1.1-5.3h0.8L503.3,49.4z"/>
<path class="st4" d="M506.4,45.6c0.4,0,0.8,0.2,0.9,0.6l0,0c0-0.3,0.1-0.6,0.1-0.8l0.3-1.2h0.8l-1.1,5.3h-0.6l0.1-0.6l0,0
	c-0.2,0.2-0.4,0.4-0.6,0.5c-0.2,0.1-0.4,0.2-0.6,0.2c-0.3,0-0.6-0.1-0.8-0.3c-0.2-0.3-0.3-0.6-0.3-1c0-0.4,0.1-0.9,0.2-1.3
	c0.1-0.4,0.4-0.7,0.6-0.9C505.8,45.7,506.1,45.6,506.4,45.6z M506,48.8c0.2,0,0.4-0.1,0.6-0.3c0.2-0.2,0.3-0.5,0.4-0.7
	c0.1-0.3,0.2-0.6,0.2-0.9c0-0.2,0-0.4-0.1-0.5c-0.1-0.1-0.3-0.2-0.5-0.2c-0.2,0-0.4,0.1-0.5,0.3c-0.2,0.2-0.3,0.5-0.4,0.7
	c-0.1,0.3-0.2,0.6-0.1,0.9C505.4,48.6,505.6,48.8,506,48.8z"/>
<path class="st4" d="M510.1,49.5c-0.7,0.1-1.4-0.5-1.4-1.2c0-0.1,0-0.2,0-0.3c0-0.4,0.1-0.9,0.3-1.3c0.2-0.4,0.4-0.7,0.7-0.9
	c0.3-0.2,0.6-0.3,1-0.3c0.3,0,0.6,0.1,0.9,0.2c0.2,0.2,0.3,0.4,0.3,0.7c0,0.4-0.2,0.8-0.6,1c-0.5,0.3-1.1,0.4-1.6,0.3h-0.1v0.2
	c0,0.2,0.1,0.4,0.2,0.6c0.2,0.1,0.4,0.2,0.6,0.2c0.2,0,0.3,0,0.5-0.1c0.2-0.1,0.4-0.1,0.6-0.2v0.6c-0.2,0.1-0.4,0.2-0.6,0.2
	C510.5,49.5,510.3,49.5,510.1,49.5z M510.6,46.2c-0.2,0-0.5,0.1-0.6,0.3c-0.2,0.2-0.4,0.5-0.4,0.8h0.1c0.3,0,0.7,0,1-0.2
	c0.2-0.1,0.4-0.3,0.4-0.5c0-0.1,0-0.2-0.1-0.3C510.9,46.2,510.8,46.2,510.6,46.2L510.6,46.2z"/>
<path class="st4" d="M514.8,45.6c0.1,0,0.2,0,0.4,0l-0.2,0.8c-0.1,0-0.2,0-0.3,0c-0.3,0-0.6,0.1-0.8,0.4c-0.2,0.3-0.4,0.6-0.5,1
	l-0.4,1.7h-0.8l0.8-3.8h0.6l-0.1,0.7l0,0c0.1-0.2,0.3-0.4,0.6-0.6C514.3,45.6,514.5,45.6,514.8,45.6z"/>
<path class="st4" d="M515,49.1c0-0.3,0.2-0.6,0.5-0.6c0,0,0.1,0,0.1,0c0.2,0,0.4,0.2,0.4,0.4c0,0,0,0,0,0.1c0,0.2-0.1,0.3-0.2,0.4
	c-0.1,0.1-0.3,0.2-0.4,0.2c-0.1,0-0.2,0-0.3-0.1C515,49.3,515,49.2,515,49.1z"/>
</svg>
