<svg id="Layer_1" data-name="Layer 1" xmlns="http://www.w3.org/2000/svg" xmlns:xlink="http://www.w3.org/1999/xlink" viewBox="0 0 540 52.97"><defs><style>.cls-1{fill:none;}.cls-2{clip-path:url(#clip-path);}.cls-3{fill:#1a478e;}.cls-4{fill:#fff;}.cls-5{fill:#f26222;}.cls-6{fill:#fdb814;}.cls-7{fill:#231f20;}</style><clipPath id="clip-path"><rect class="cls-1" x="14.78" width="211.54" height="41.1"/></clipPath></defs><title>oddset logo</title><g class="cls-2"><path class="cls-3" d="M328.08,37.81a3.14,3.14,0,0,1-2.94,3.29H-18.42a3.13,3.13,0,0,1-2.94-3.28V3.29A3.12,3.12,0,0,1-18.41,0H325.14a3.12,3.12,0,0,1,2.94,3.29Z"/><path class="cls-4" d="M318.42,15.33l-.48-.76h-.25v.76h-.41v-2H318c.46,0,.75.16.75.62a.54.54,0,0,1-.39.54v0l.58.83ZM318,13.61h-.26v.67H318c.25,0,.37-.08.37-.34s-.12-.33-.37-.33"/><path class="cls-4" d="M315.83,14.42A2.16,2.16,0,1,0,318,12.26a2.16,2.16,0,0,0-2.16,2.16m.42,0A1.74,1.74,0,1,1,318,16.15a1.74,1.74,0,0,1-1.74-1.73"/><path class="cls-5" d="M294.24,11.87,292.38,9.8l.21-.26,1.46-1.64a1.74,1.74,0,0,0,.45-1.06A1.52,1.52,0,0,0,293,5.42a1.31,1.31,0,0,0-1.08.56l-1,1.42-.22.28-.22-.28-1-1.42a1.31,1.31,0,0,0-1.08-.56,1.52,1.52,0,0,0-1.5,1.42,1.74,1.74,0,0,0,.45,1.06l1.46,1.64.2.26-1.85,2.07a1.68,1.68,0,0,0-.41,1,1.36,1.36,0,0,0,1.45,1.42,1.4,1.4,0,0,0,1.22-.65L290.66,12,292,13.63a1.4,1.4,0,0,0,1.22.65,1.35,1.35,0,0,0,1.44-1.42,1.67,1.67,0,0,0-.4-1"/><path class="cls-4" d="M295.4,26a27.27,27.27,0,0,1-2.8-.1c-.31-.07-.41-.13-.51-.3a1.52,1.52,0,0,1-.08-.7V24.6h0s0-.16.09-.56l.09-.57.37-1.87a11.68,11.68,0,0,1,.37-1.53,2.23,2.23,0,0,1,.46-.91,1.17,1.17,0,0,1,.72-.37,25.24,25.24,0,0,1,2.84-.11,27.32,27.32,0,0,1,2.82.1.68.68,0,0,1,.5.34,1.38,1.38,0,0,1,.06,1,1.86,1.86,0,0,1-.51,1.06,1.13,1.13,0,0,1-.72.36c-.34.08-2.18.12-2.86.12h-.44a1.66,1.66,0,0,0-1.38,1.47l-.14.72H296c.7,0,2.8,0,3.52-.08a3.06,3.06,0,0,0,2.3-1A4.28,4.28,0,0,0,303,20.29l0-.12h0a3.45,3.45,0,0,0-.34-2.51,2.13,2.13,0,0,0-1.91-1.14c-.74-.05-2.78-.08-3.5-.08s-2.72,0-3.48.08a3.16,3.16,0,0,0-2.22,1.09,5.17,5.17,0,0,0-1.33,2.59l-.13.55c-.12.5-.19.79-.33,1.52s-.19,1.06-.26,1.51l-.08.56a3.85,3.85,0,0,0,.35,2.7,2.1,2.1,0,0,0,1.87,1.15c.73.05,6.69.07,7.39.07,1.18,0,1.45-1.49,1.6-2.26Z"/><path class="cls-4" d="M279.89,16.52h0c-2.42.1-3,2.5-3.1,3a3.48,3.48,0,0,0,.12,2.17,2.05,2.05,0,0,0,1.56,1.14c.62.13,2.24.29,3.68.42h.06c1,.09,2.08.19,2.32.25s.5.17.56.31a.85.85,0,0,1,0,.51c-.17.85-.61,1.32-1.31,1.38-1,.09-2.47.1-2.89.1s-2.74-.07-3.6-.14a1.14,1.14,0,0,0-.88.37,2.44,2.44,0,0,0-.57,1.21l-.13.65.48.06c.83.1,3.84.22,4.35.23.76,0,1.25,0,2.08,0l1.49,0a3.66,3.66,0,0,0,3.34-3s.16-.66.16-.66h0a5.64,5.64,0,0,0,.11-.82,2.78,2.78,0,0,0-.26-1.41,2.17,2.17,0,0,0-1.85-1.13c-1.65-.17-5.41-.59-5.85-.65a.7.7,0,0,1-.57-.32.35.35,0,0,1,0-.22s0-.08,0-.11c.11-.58.3-.9,1-1s2.51-.1,3.3-.1l1.33,0,1.89,0c.67,0,1.24-.62,1.42-1.5l.14-.68-.52,0c-.69,0-2.88-.1-3.88-.1s-2.09,0-3.95.08"/><path class="cls-4" d="M260.85,12.91h-.12c-1.35,0-2.31.91-2.62,2.52l-1.33,6.83c-.12.62-.39,1.91-.54,2.39a2.14,2.14,0,0,1-.46.88,1.24,1.24,0,0,1-.72.36,22.71,22.71,0,0,1-2.57.1,21.11,21.11,0,0,1-2.52-.1c-.3-.07-.41-.13-.5-.3a1.24,1.24,0,0,1-.09-.77c0-.51.29-1.93.38-2.38s.38-1.88.54-2.39a2.08,2.08,0,0,1,.46-.88,1.2,1.2,0,0,1,.72-.37,22,22,0,0,1,2.57-.1h.25a1.11,1.11,0,0,0,.82-.39,2.31,2.31,0,0,0,.54-1.12l.13-.67-.76-.06a4.71,4.71,0,0,0-.68,0c-.7,0-2.48,0-3.21.08a3.13,3.13,0,0,0-2.22,1.1,5.1,5.1,0,0,0-1.33,2.58l-.13.57c-.12.48-.19.77-.33,1.5s-.18,1-.25,1.5l-.09.57a3.84,3.84,0,0,0,.35,2.7A2.1,2.1,0,0,0,249,28.18c.69.05,2.45.08,3.18.08s2.5,0,3.21-.08a3.14,3.14,0,0,0,2.22-1.09A5.13,5.13,0,0,0,259,24.5s.13-.56.13-.56c.12-.5.19-.79.33-1.5l1.85-9.53Z"/><path class="cls-4" d="M275.39,12.91h-.11c-1.35,0-2.31.91-2.62,2.52l-1.33,6.83c-.12.62-.39,1.91-.54,2.39a2,2,0,0,1-.47.88,1.18,1.18,0,0,1-.71.36A22.71,22.71,0,0,1,267,26a21,21,0,0,1-2.52-.1c-.3-.07-.41-.13-.51-.3a1.4,1.4,0,0,1-.09-.77c0-.51.3-1.93.39-2.38s.38-1.88.54-2.39a2.08,2.08,0,0,1,.46-.88,1.2,1.2,0,0,1,.72-.37,21.8,21.8,0,0,1,2.56-.1h.25a1.13,1.13,0,0,0,.83-.39,2.31,2.31,0,0,0,.54-1.12l.13-.67-.76-.06a4.71,4.71,0,0,0-.68,0c-.71,0-2.48,0-3.21.08a3.1,3.1,0,0,0-2.22,1.1,5.1,5.1,0,0,0-1.33,2.58l-.13.57c-.12.48-.19.77-.33,1.5s-.19,1-.26,1.5l-.08.57a3.84,3.84,0,0,0,.35,2.7,2.1,2.1,0,0,0,1.87,1.15c.69.05,2.45.08,3.18.08s2.5,0,3.21-.08a3.14,3.14,0,0,0,2.22-1.09,5.21,5.21,0,0,0,1.33-2.59s.13-.56.13-.56c.12-.5.19-.78.33-1.5l1.85-9.53Z"/><path class="cls-4" d="M233.87,25.85c-.3-.08-.41-.14-.5-.3a1.2,1.2,0,0,1-.09-.78c0-.47.48-2.92.69-4,.14-.73.74-3.78.91-4.3a2.22,2.22,0,0,1,.46-.89,1.24,1.24,0,0,1,.72-.36c.4-.08,2.72-.1,3.3-.1.84,0,2.93,0,3.26.1s.4.12.5.3a1.24,1.24,0,0,1,.09.77c0,.47-.53,3.15-.75,4.3-.13.67-.69,3.46-.86,4a1.88,1.88,0,0,1-.46.88,1.15,1.15,0,0,1-.72.37c-.39.08-2.71.1-3.3.1-.8,0-2.93,0-3.25-.1M235.72,13a3.16,3.16,0,0,0-2.22,1.09,5.16,5.16,0,0,0-1.32,2.59l-.14.56c-.12.5-.57,2.76-.7,3.42s-.49,2.6-.57,3.1l-.08.57A3.81,3.81,0,0,0,231,27a2.09,2.09,0,0,0,1.87,1.16c.69.05,3.18.08,3.91.08s3.23,0,3.94-.08A3.17,3.17,0,0,0,243,27a5.16,5.16,0,0,0,1.32-2.58l.14-.56c.12-.5.5-2.4.63-3.1s.56-2.93.63-3.42l.09-.56a3.88,3.88,0,0,0-.35-2.7A2.09,2.09,0,0,0,243.58,13c-.68-.05-3.18-.08-3.91-.08s-3.24,0-3.95.08"/><path class="cls-4" d="M309.14,12.91h-.4a2.66,2.66,0,0,0-1.9.88,3.36,3.36,0,0,0-.75,1.26,3.59,3.59,0,0,0-.12.47l-.23,1.17-1,5.08c-.19,1-.28,1.59-.42,2.5a3.83,3.83,0,0,0,.35,2.7,2.07,2.07,0,0,0,1.86,1.16c.72.05,3.15.08,3.82.08H311c.64,0,1.23-.7,1.4-1.59l0-.17.1-.54h-1.9c-1.06,0-2.85,0-3.17-.06s-.41-.14-.51-.3a1.12,1.12,0,0,1-.09-.67v-.1c0-.5.36-2.25.47-2.83l.64-3.27h4.65l.43-2.23h-4.65Z"/><path class="cls-6" d="M8.85,21.89,6.94,11.16a1.06,1.06,0,0,0-1.26-.9l-11.24,2a1.64,1.64,0,0,0-.84.42s-2.85,2.7-3.27,3.13a2,2,0,0,0-.56,1.81l2.17,12.29a1.11,1.11,0,0,0,1.29.9c.47-.07,11.55-2,12.12-2.13A2.37,2.37,0,0,0,7,27.34l1.71-3.68a2.37,2.37,0,0,0,.19-1.77m-6-9.32a5.1,5.1,0,0,1-2,.66C0,13.34-.35,13.23,0,13a5.11,5.11,0,0,1,2-.66c.79-.11,1.17,0,.86.26M1,12.1l-2.5.77H-3.3l2.49-.77Zm-6.7.59,2.47-.44L-4,13l-2.51.4Zm-1,16.81-.48-2.72,2.72-.48L-4,29Zm2.19-4-1.78-2.12.94-2.59,1.78,2.12ZM-2,21.1a1.57,1.57,0,0,1-1.82-1.28A1.57,1.57,0,0,1-2.53,18,1.57,1.57,0,0,1-.71,19.28,1.57,1.57,0,0,1-2,21.1m3.54-1.88L-.59,16.68l3.27-.57ZM2.72,14,.28,14l3.14-.94Zm3.89-1.6.13,2.84L6,13.28Zm-.86,2.47c.16-.25.4.19.54,1a3.67,3.67,0,0,1,0,1.85c-.16.25-.4-.19-.54-1a3.56,3.56,0,0,1,0-1.85m0,3.18.66,1.84.13,2.68-.67-1.82Zm.82,8.6L6.11,24l.49-1,.45,2.56Z"/></g><path class="cls-3" d="M527.81,0H9.71V3.1c0,.07,0,.13,0,.19V37.82a1.94,1.94,0,0,0,0,.24v3h518.1a3.14,3.14,0,0,0,2.94-3.29V3.29A3.12,3.12,0,0,0,527.81,0Z"/><path class="cls-6" d="M39.89,21.89,38,11.16a1.06,1.06,0,0,0-1.26-.9l-11.24,2a1.7,1.7,0,0,0-.85.42s-2.85,2.7-3.26,3.13a2,2,0,0,0-.56,1.81L23,29.88a1.1,1.1,0,0,0,1.29.9c.46-.07,11.54-2,12.12-2.13A2.36,2.36,0,0,0,38,27.34l1.71-3.68a2.33,2.33,0,0,0,.19-1.77m-6-9.32a5.23,5.23,0,0,1-2,.66c-.79.11-1.17,0-.86-.26a5.23,5.23,0,0,1,2-.66c.79-.11,1.17,0,.86.26m-1.81-.47-2.5.77h-1.8l2.48-.77Zm-6.7.59,2.47-.44-.76.79-2.5.4Zm-1,16.81-.49-2.72,2.73-.48L27,29Zm2.18-4-1.78-2.12.94-2.59,1.78,2.12Zm2.56-4.4a1.57,1.57,0,1,1,1.28-1.82,1.58,1.58,0,0,1-1.28,1.82m3.53-1.88-2.13-2.54,3.26-.57ZM33.76,14l-2.43,0,3.13-.94Zm3.9-1.6.12,2.84L37,13.28Zm-.86,2.47c.16-.25.4.19.53,1a3.56,3.56,0,0,1,0,1.85c-.15.25-.4-.19-.53-1a3.56,3.56,0,0,1,0-1.85m0,3.18.67,1.84.13,2.68-.67-1.82Zm.83,8.6L37.15,24l.49-1,.46,2.56Z"/><rect class="cls-1" x="9.69" width="247.68" height="41.1"/><path class="cls-4" d="M521.09,15.33l-.48-.76h-.24v.76H520v-2h.71c.46,0,.75.16.75.62a.54.54,0,0,1-.39.54v0l.58.83Zm-.47-1.72h-.25v.67h.25c.25,0,.37-.08.37-.34s-.12-.33-.37-.33"/><path class="cls-4" d="M518.5,14.42a2.16,2.16,0,1,0,2.16-2.16,2.16,2.16,0,0,0-2.16,2.16m.42,0a1.74,1.74,0,1,1,1.74,1.73,1.74,1.74,0,0,1-1.74-1.73"/><path class="cls-5" d="M496.91,11.87,495.06,9.8l.2-.26,1.46-1.64a1.74,1.74,0,0,0,.45-1.06,1.52,1.52,0,0,0-1.5-1.42,1.31,1.31,0,0,0-1.08.56l-1,1.42-.22.28-.22-.28-1-1.42A1.31,1.31,0,0,0,491,5.42a1.53,1.53,0,0,0-1.51,1.42A1.74,1.74,0,0,0,490,7.9l1.46,1.64.2.26-1.85,2.07a1.68,1.68,0,0,0-.41,1,1.36,1.36,0,0,0,1.45,1.42,1.4,1.4,0,0,0,1.22-.65L493.34,12l1.31,1.64a1.4,1.4,0,0,0,1.22.65,1.36,1.36,0,0,0,1.45-1.42,1.68,1.68,0,0,0-.41-1"/><path class="cls-4" d="M498.07,26a27.27,27.27,0,0,1-2.8-.1c-.3-.07-.41-.13-.51-.3a1.52,1.52,0,0,1-.08-.7.53.53,0,0,1,0-.13V24.6h0s0-.16.09-.56l.1-.57.36-1.87a11.68,11.68,0,0,1,.37-1.53,2.23,2.23,0,0,1,.46-.91,1.17,1.17,0,0,1,.72-.37,25.24,25.24,0,0,1,2.84-.11,27.32,27.32,0,0,1,2.82.1.66.66,0,0,1,.5.34,1.38,1.38,0,0,1,.06,1,1.92,1.92,0,0,1-.5,1.06,1.18,1.18,0,0,1-.72.36c-.35.08-2.19.12-2.86.12h-.45a1.66,1.66,0,0,0-1.38,1.47l-.14.72h1.67c.7,0,2.8,0,3.52-.08a3.06,3.06,0,0,0,2.3-1,4.28,4.28,0,0,0,1.21-2.48l0-.12h0a3.55,3.55,0,0,0-.34-2.51,2.14,2.14,0,0,0-1.92-1.14c-.73-.05-2.78-.08-3.49-.08s-2.73,0-3.49.08a3.18,3.18,0,0,0-2.22,1.09,5.17,5.17,0,0,0-1.33,2.59l-.13.55c-.12.5-.19.79-.33,1.52s-.19,1.06-.26,1.51l-.08.56a3.85,3.85,0,0,0,.35,2.7,2.1,2.1,0,0,0,1.87,1.15c.73.05,6.7.07,7.4.07,1.17,0,1.45-1.49,1.59-2.26Z"/><path class="cls-4" d="M482.56,16.52h0c-2.42.1-3,2.5-3.1,3a3.48,3.48,0,0,0,.12,2.17,2.07,2.07,0,0,0,1.56,1.14c.62.13,2.24.29,3.68.42h.06c1,.09,2.08.19,2.32.25s.5.17.56.31a.85.85,0,0,1,0,.51c-.17.85-.61,1.32-1.31,1.38-1,.09-2.47.1-2.89.1s-2.74-.07-3.6-.14a1.11,1.11,0,0,0-.87.37,2.37,2.37,0,0,0-.58,1.21l-.13.65.48.06c.83.1,3.84.22,4.35.23.76,0,1.26,0,2.09,0l1.48,0a3.66,3.66,0,0,0,3.34-3s.16-.66.16-.66h0a4.52,4.52,0,0,0,.11-.82,2.88,2.88,0,0,0-.25-1.41,2.2,2.2,0,0,0-1.86-1.13c-1.65-.17-5.41-.59-5.84-.65a.72.72,0,0,1-.58-.32.35.35,0,0,1,0-.22s0-.08,0-.11c.11-.58.31-.9,1-1s2.52-.1,3.3-.1l1.33,0,1.89,0a1.64,1.64,0,0,0,1.42-1.5l.14-.68-.52,0c-.69,0-2.88-.1-3.88-.1s-2.09,0-3.95.08"/><path class="cls-4" d="M463.52,12.91h-.11c-1.36,0-2.31.91-2.63,2.52l-1.33,6.83c-.12.62-.39,1.91-.54,2.39a2.14,2.14,0,0,1-.46.88,1.24,1.24,0,0,1-.72.36,22.52,22.52,0,0,1-2.56.1,20.91,20.91,0,0,1-2.52-.1c-.31-.07-.42-.13-.51-.3a1.24,1.24,0,0,1-.09-.77c0-.51.29-1.93.38-2.38s.38-1.88.55-2.39a2,2,0,0,1,.45-.88,1.2,1.2,0,0,1,.72-.37,22,22,0,0,1,2.57-.1H457a1.11,1.11,0,0,0,.82-.39,2.31,2.31,0,0,0,.54-1.12l.13-.67-.76-.06a4.64,4.64,0,0,0-.67,0c-.71,0-2.49,0-3.22.08a3.13,3.13,0,0,0-2.22,1.1,5.08,5.08,0,0,0-1.32,2.58l-.14.57c-.12.48-.19.77-.33,1.5s-.18,1-.25,1.5l-.09.57a3.84,3.84,0,0,0,.35,2.7,2.1,2.1,0,0,0,1.87,1.15c.69.05,2.45.08,3.18.08s2.5,0,3.21-.08a3.14,3.14,0,0,0,2.22-1.09,5.13,5.13,0,0,0,1.33-2.59s.13-.56.13-.56c.12-.5.19-.79.33-1.5l1.85-9.53Z"/><path class="cls-4" d="M478.07,12.91H478c-1.35,0-2.31.91-2.62,2.52L474,22.26c-.12.62-.39,1.91-.54,2.39a2.14,2.14,0,0,1-.46.88,1.24,1.24,0,0,1-.72.36,22.71,22.71,0,0,1-2.57.1,21,21,0,0,1-2.52-.1c-.3-.07-.41-.13-.51-.3a1.4,1.4,0,0,1-.09-.77c0-.51.3-1.93.39-2.38s.38-1.88.54-2.39a2.08,2.08,0,0,1,.46-.88,1.2,1.2,0,0,1,.72-.37,22,22,0,0,1,2.57-.1h.24a1.12,1.12,0,0,0,.83-.39,2.31,2.31,0,0,0,.54-1.12l.13-.67-.76-.06a4.71,4.71,0,0,0-.68,0c-.71,0-2.48,0-3.21.08a3.11,3.11,0,0,0-2.22,1.1,5.17,5.17,0,0,0-1.33,2.58l-.13.57c-.12.48-.19.77-.33,1.5s-.18,1-.26,1.5l-.08.57a3.84,3.84,0,0,0,.35,2.7,2.1,2.1,0,0,0,1.87,1.15c.69.05,2.45.08,3.18.08s2.5,0,3.21-.08a3.14,3.14,0,0,0,2.22-1.09,5.21,5.21,0,0,0,1.33-2.59s.13-.56.13-.56c.12-.5.19-.78.33-1.5l1.85-9.53Z"/><path class="cls-4" d="M436.54,25.85c-.3-.08-.41-.14-.5-.3a1.27,1.27,0,0,1-.09-.78c0-.47.48-2.92.69-4,.14-.73.74-3.78.92-4.3a2,2,0,0,1,.46-.89,1.18,1.18,0,0,1,.72-.36c.39-.08,2.71-.1,3.29-.1.84,0,2.93,0,3.26.1s.4.12.5.3a1.24,1.24,0,0,1,.09.77c0,.47-.53,3.15-.75,4.3-.13.67-.69,3.46-.86,4a1.88,1.88,0,0,1-.46.88,1.15,1.15,0,0,1-.71.37c-.4.08-2.72.1-3.3.1-.81,0-2.93,0-3.26-.1M438.39,13a3.16,3.16,0,0,0-2.22,1.09,5.24,5.24,0,0,0-1.32,2.59l-.14.56c-.12.5-.57,2.76-.7,3.42s-.49,2.6-.56,3.1l-.09.57a3.86,3.86,0,0,0,.35,2.69,2.09,2.09,0,0,0,1.87,1.16c.69.05,3.18.08,3.91.08s3.23,0,3.94-.08a3.17,3.17,0,0,0,2.23-1.1A5.08,5.08,0,0,0,447,24.46l.14-.56c.12-.5.5-2.4.64-3.1s.55-2.93.62-3.42l.09-.56a3.83,3.83,0,0,0-.35-2.7A2.09,2.09,0,0,0,446.25,13c-.68-.05-3.18-.08-3.91-.08s-3.24,0-3.95.08"/><path class="cls-4" d="M511.81,12.91h-.4a2.68,2.68,0,0,0-1.9.88,3.49,3.49,0,0,0-.75,1.26,3.59,3.59,0,0,0-.12.47l-.23,1.17-1,5.08c-.19,1-.28,1.59-.42,2.5a3.83,3.83,0,0,0,.35,2.7,2.08,2.08,0,0,0,1.86,1.16c.72.05,3.15.08,3.82.08h.69c.65,0,1.23-.7,1.4-1.59l0-.17.1-.54h-1.9c-1.05,0-2.85,0-3.17-.06s-.41-.14-.51-.3a1.12,1.12,0,0,1-.09-.67v-.1c0-.5.36-2.25.47-2.83l.64-3.27h4.65l.44-2.23h-4.66Z"/><rect class="cls-1" x="215.05" width="315.71" height="41.1"/><path class="cls-7" d="M349.88,44.43l-.69,3.27a2.28,2.28,0,0,1-.71,1.35,2,2,0,0,1-1.38.44,1.66,1.66,0,0,1-1.14-.36,1.33,1.33,0,0,1-.41-1,3,3,0,0,1,.07-.58l.66-3.08h.81l-.66,3.09a2.86,2.86,0,0,0-.07.54.7.7,0,0,0,.21.54.84.84,0,0,0,.61.2,1.12,1.12,0,0,0,.79-.28,1.72,1.72,0,0,0,.42-.89l.68-3.2Z"/><path class="cls-7" d="M351.94,45.58a1,1,0,0,1,.92.6h0a7.55,7.55,0,0,1,.12-.85l.26-1.22h.8l-1.13,5.31h-.63l.07-.6h0a2.07,2.07,0,0,1-.58.52,1.2,1.2,0,0,1-.59.15.93.93,0,0,1-.77-.34,1.6,1.6,0,0,1-.27-1,3.58,3.58,0,0,1,.24-1.31,2.21,2.21,0,0,1,.66-.94A1.39,1.39,0,0,1,351.94,45.58Zm-.45,3.26a.77.77,0,0,0,.55-.28,1.88,1.88,0,0,0,.44-.73,2.62,2.62,0,0,0,.17-.91.78.78,0,0,0-.15-.5.53.53,0,0,0-.45-.19.77.77,0,0,0-.55.26,1.88,1.88,0,0,0-.4.73,2.92,2.92,0,0,0-.15.93Q351,48.84,351.49,48.84Z"/><path class="cls-7" d="M355.89,49.49a1.06,1.06,0,0,1-.58-.15,1,1,0,0,1-.38-.45h0l-.22.53h-.61l1.13-5.31h.8l-.24,1.13c0,.15-.07.33-.13.54s-.1.37-.14.48h0a2.12,2.12,0,0,1,.56-.54,1.18,1.18,0,0,1,.55-.14.93.93,0,0,1,.78.35,1.58,1.58,0,0,1,.27,1,3.65,3.65,0,0,1-.23,1.29,2.25,2.25,0,0,1-.66.95A1.35,1.35,0,0,1,355.89,49.49Zm.45-3.26a.77.77,0,0,0-.55.28,1.85,1.85,0,0,0-.45.72,2.59,2.59,0,0,0-.17.92.73.73,0,0,0,.16.51.58.58,0,0,0,.45.18.74.74,0,0,0,.54-.27,1.79,1.79,0,0,0,.4-.71,3,3,0,0,0,.15-.94C356.87,46.46,356.69,46.23,356.34,46.23Z"/><path class="cls-7" d="M358.35,45.64h.8l.21,1.82q0,.21.06.6c0,.25,0,.46,0,.62h0c.2-.49.35-.85.46-1.07l1-2h.87L359.44,50a2.29,2.29,0,0,1-.67.82,1.37,1.37,0,0,1-.85.27,1.93,1.93,0,0,1-.49-.07V50.4a1.83,1.83,0,0,0,.43.05.77.77,0,0,0,.46-.15,1.67,1.67,0,0,0,.42-.53l.17-.31Z"/><path class="cls-7" d="M363.57,45.58a1,1,0,0,1,.92.6h0a7.55,7.55,0,0,1,.12-.85l.26-1.22h.8l-1.13,5.31h-.63l.07-.6h0a2.07,2.07,0,0,1-.58.52,1.23,1.23,0,0,1-.59.15.93.93,0,0,1-.77-.34,1.6,1.6,0,0,1-.28-1,3.59,3.59,0,0,1,.25-1.31,2.29,2.29,0,0,1,.65-.94A1.44,1.44,0,0,1,363.57,45.58Zm-.46,3.26a.78.78,0,0,0,.56-.28,2,2,0,0,0,.44-.73,2.62,2.62,0,0,0,.17-.91.78.78,0,0,0-.15-.5.54.54,0,0,0-.46-.19.77.77,0,0,0-.54.26,1.88,1.88,0,0,0-.4.73,2.92,2.92,0,0,0-.15.93C362.58,48.61,362.76,48.84,363.11,48.84Z"/><path class="cls-7" d="M367.29,49.49a1.38,1.38,0,0,1-1.05-.38,1.43,1.43,0,0,1-.38-1.06,3.12,3.12,0,0,1,.26-1.26,2.32,2.32,0,0,1,.72-.9,1.73,1.73,0,0,1,1-.31,1.34,1.34,0,0,1,.85.24.85.85,0,0,1,.31.71,1.09,1.09,0,0,1-.57,1,3.14,3.14,0,0,1-1.62.35h-.15v.2a.87.87,0,0,0,.2.6.73.73,0,0,0,.57.21,2,2,0,0,0,.49-.06,3.59,3.59,0,0,0,.57-.22v.64a2.62,2.62,0,0,1-1.21.27Zm.52-3.3a.85.85,0,0,0-.62.3,1.63,1.63,0,0,0-.41.77h.09a2.31,2.31,0,0,0,1-.18.57.57,0,0,0,.36-.52.31.31,0,0,0-.11-.27A.44.44,0,0,0,367.81,46.19Z"/><path class="cls-7" d="M371.88,48.26a1.08,1.08,0,0,1-.4.91,1.72,1.72,0,0,1-1.12.32,2.32,2.32,0,0,1-1.1-.23v-.69a2,2,0,0,0,1.07.31.92.92,0,0,0,.53-.14.42.42,0,0,0,.21-.37.41.41,0,0,0-.12-.3,2.2,2.2,0,0,0-.48-.33,1.89,1.89,0,0,1-.61-.47,1,1,0,0,1-.17-.56,1,1,0,0,1,.36-.83,1.54,1.54,0,0,1,1-.3,2.37,2.37,0,0,1,1.18.28l-.26.6a2,2,0,0,0-.91-.26.63.63,0,0,0-.4.12.37.37,0,0,0-.16.31.38.38,0,0,0,.12.28,1.79,1.79,0,0,0,.46.3,2.69,2.69,0,0,1,.51.35,1.14,1.14,0,0,1,.23.31A.94.94,0,0,1,371.88,48.26Z"/><path class="cls-7" d="M375.55,49.49a.93.93,0,0,1-.77-.34,1.59,1.59,0,0,1-.28-1,3.44,3.44,0,0,1,.24-1.29,2.31,2.31,0,0,1,.66-1,1.34,1.34,0,0,1,.91-.35,1.05,1.05,0,0,1,.57.15,1,1,0,0,1,.37.45h0l.21-.54h.62l-.81,3.78h-.62l.07-.6h0A1.53,1.53,0,0,1,375.55,49.49Zm.29-.65a.77.77,0,0,0,.55-.26,1.91,1.91,0,0,0,.44-.71,2.58,2.58,0,0,0,.18-1,.72.72,0,0,0-.16-.49.54.54,0,0,0-.42-.18.77.77,0,0,0-.55.26,1.92,1.92,0,0,0-.41.72,3,3,0,0,0-.15.94.77.77,0,0,0,.14.52A.44.44,0,0,0,375.84,48.84Z"/><path class="cls-7" d="M378,51.11a1.43,1.43,0,0,1-.51-.08v-.65a1.46,1.46,0,0,0,.39.07c.3,0,.5-.24.6-.7l.74-3.5h-.61l.07-.36.67-.26.07-.31a1.79,1.79,0,0,1,.46-1,1.23,1.23,0,0,1,.87-.28,1.73,1.73,0,0,1,.73.15l-.21.6a1.24,1.24,0,0,0-.47-.1.5.5,0,0,0-.38.15,1.08,1.08,0,0,0-.21.48l-.06.29h.78l-.13.61H380l-.76,3.6a1.8,1.8,0,0,1-.45.95A1.13,1.13,0,0,1,378,51.11Z"/><path class="cls-7" d="M386.93,46.37a3.58,3.58,0,0,1-.34,1.62,2.48,2.48,0,0,1-1,1.06,3.05,3.05,0,0,1-1.54.37h-1.37l1.06-5H385a1.72,1.72,0,0,1,1.92,1.94Zm-2.83,2.37a1.85,1.85,0,0,0,1.75-1.12,3,3,0,0,0,.24-1.22,1.38,1.38,0,0,0-.3-1,1.12,1.12,0,0,0-.87-.33h-.5l-.78,3.63Z"/><path class="cls-7" d="M388.51,49.49a.93.93,0,0,1-.76-.34,1.52,1.52,0,0,1-.28-1,3.44,3.44,0,0,1,.24-1.29,2.3,2.3,0,0,1,.65-1,1.38,1.38,0,0,1,.92-.35,1.05,1.05,0,0,1,.57.15,1,1,0,0,1,.37.45h0l.21-.54h.61l-.8,3.78h-.62l.07-.6h0A1.53,1.53,0,0,1,388.51,49.49Zm.3-.65a.78.78,0,0,0,.55-.26,1.91,1.91,0,0,0,.44-.71,2.58,2.58,0,0,0,.18-1,.78.78,0,0,0-.16-.49.54.54,0,0,0-.42-.18.77.77,0,0,0-.55.26,1.92,1.92,0,0,0-.41.72,3,3,0,0,0-.16.94.83.83,0,0,0,.14.52A.45.45,0,0,0,388.81,48.84Z"/><path class="cls-7" d="M393.6,49.42l.49-2.29a2.77,2.77,0,0,0,.06-.45.39.39,0,0,0-.44-.45.77.77,0,0,0-.49.2,1.72,1.72,0,0,0-.43.56,3.24,3.24,0,0,0-.28.83l-.34,1.6h-.81l.81-3.78h.63l-.07.7h0a2.12,2.12,0,0,1,.58-.58,1.26,1.26,0,0,1,.66-.18.93.93,0,0,1,.71.26,1,1,0,0,1,.25.73,3.38,3.38,0,0,1-.08.62l-.47,2.23Z"/><path class="cls-7" d="M398,48.26a1.08,1.08,0,0,1-.4.91,1.72,1.72,0,0,1-1.12.32,2.32,2.32,0,0,1-1.1-.23v-.69a2,2,0,0,0,1.07.31.92.92,0,0,0,.53-.14.42.42,0,0,0,.21-.37.41.41,0,0,0-.12-.3,2.2,2.2,0,0,0-.48-.33,1.89,1.89,0,0,1-.61-.47,1,1,0,0,1-.17-.56,1,1,0,0,1,.36-.83,1.54,1.54,0,0,1,1-.3,2.37,2.37,0,0,1,1.18.28l-.26.6a2,2,0,0,0-.91-.26.63.63,0,0,0-.4.12.37.37,0,0,0-.16.31.38.38,0,0,0,.12.28,1.79,1.79,0,0,0,.46.3,2.69,2.69,0,0,1,.51.35,1.14,1.14,0,0,1,.23.31A.94.94,0,0,1,398,48.26Z"/><path class="cls-7" d="M401.52,45.64h.93l-1.66,1.66,1,2.12h-.9l-.71-1.6-.47.32-.26,1.28h-.81l1.13-5.31h.81c-.31,1.42-.49,2.26-.55,2.49s-.12.49-.2.77h0Z"/><path class="cls-7" d="M403.93,49.49a1.38,1.38,0,0,1-1.05-.38,1.43,1.43,0,0,1-.38-1.06,3.12,3.12,0,0,1,.26-1.26,2.32,2.32,0,0,1,.72-.9,1.73,1.73,0,0,1,1-.31,1.34,1.34,0,0,1,.85.24.85.85,0,0,1,.31.71,1.09,1.09,0,0,1-.57,1,3.14,3.14,0,0,1-1.62.35h-.15v.2a.87.87,0,0,0,.2.6.73.73,0,0,0,.57.21,2,2,0,0,0,.49-.06,4.06,4.06,0,0,0,.58-.22v.64a3,3,0,0,1-.61.21A2.87,2.87,0,0,1,403.93,49.49Zm.52-3.3a.85.85,0,0,0-.62.3,1.63,1.63,0,0,0-.41.77h.09a2.31,2.31,0,0,0,1-.18.57.57,0,0,0,.36-.52.31.31,0,0,0-.11-.27A.44.44,0,0,0,404.45,46.19Z"/><path class="cls-7" d="M408.63,49.42h-.8L409,44.11h.8Z"/><path class="cls-7" d="M410.56,49.42h-.8l.8-3.78h.81Zm.16-4.71a.51.51,0,0,1,.14-.37.46.46,0,0,1,.37-.14.49.49,0,0,1,.3.09.34.34,0,0,1,.11.27.52.52,0,0,1-.14.38.45.45,0,0,1-.36.14.49.49,0,0,1-.3-.09A.31.31,0,0,1,410.72,44.71Z"/><path class="cls-7" d="M413.25,49.49a1.43,1.43,0,0,1-1-.36,1.38,1.38,0,0,1-.37-1,3.11,3.11,0,0,1,.25-1.28,2.18,2.18,0,0,1,.71-.91,1.7,1.7,0,0,1,1-.32,2.61,2.61,0,0,1,1,.2l-.24.63a1.94,1.94,0,0,0-.76-.18,1,1,0,0,0-.85.53,2.3,2.3,0,0,0-.35,1.29.83.83,0,0,0,.2.59.66.66,0,0,0,.53.2,1.49,1.49,0,0,0,.47-.07,2.78,2.78,0,0,0,.44-.19v.67A2.27,2.27,0,0,1,413.25,49.49Z"/><path class="cls-7" d="M416.53,49.49a1.38,1.38,0,0,1-1-.38,1.43,1.43,0,0,1-.38-1.06,3,3,0,0,1,.27-1.26,2.21,2.21,0,0,1,.71-.9,1.75,1.75,0,0,1,1-.31,1.34,1.34,0,0,1,.85.24.85.85,0,0,1,.31.71,1.09,1.09,0,0,1-.57,1,3.14,3.14,0,0,1-1.62.35h-.15v.2a.86.86,0,0,0,.19.6.74.74,0,0,0,.57.21,2,2,0,0,0,.49-.06,3.66,3.66,0,0,0,.58-.22v.64a3,3,0,0,1-.61.21A2.8,2.8,0,0,1,416.53,49.49Zm.52-3.3a.85.85,0,0,0-.62.3,1.63,1.63,0,0,0-.41.77h.1a2.29,2.29,0,0,0,1-.18.57.57,0,0,0,.36-.52.31.31,0,0,0-.11-.27A.44.44,0,0,0,417.05,46.19Z"/><path class="cls-7" d="M420.85,49.42l.49-2.29a2.77,2.77,0,0,0,.06-.45.39.39,0,0,0-.44-.45.79.79,0,0,0-.49.2A1.87,1.87,0,0,0,420,47a3.24,3.24,0,0,0-.28.83l-.34,1.6h-.8l.8-3.78h.63l-.07.7h0a2.12,2.12,0,0,1,.58-.58,1.26,1.26,0,0,1,.66-.18.93.93,0,0,1,.71.26,1,1,0,0,1,.25.73,3.38,3.38,0,0,1-.08.62l-.47,2.23Z"/><path class="cls-7" d="M425.26,48.26a1.08,1.08,0,0,1-.41.91,1.72,1.72,0,0,1-1.12.32,2.32,2.32,0,0,1-1.1-.23v-.69a2.06,2.06,0,0,0,1.07.31.92.92,0,0,0,.53-.14.42.42,0,0,0,.21-.37.41.41,0,0,0-.12-.3,2.2,2.2,0,0,0-.48-.33,1.73,1.73,0,0,1-.6-.47.91.91,0,0,1-.18-.56,1,1,0,0,1,.36-.83,1.54,1.54,0,0,1,1-.3,2.43,2.43,0,0,1,1.19.28l-.26.6a2,2,0,0,0-.91-.26.65.65,0,0,0-.41.12.36.36,0,0,0-.15.31.37.37,0,0,0,.11.28,1.79,1.79,0,0,0,.46.3,2.69,2.69,0,0,1,.51.35,1,1,0,0,1,.23.31A.93.93,0,0,1,425.26,48.26Z"/><path class="cls-7" d="M430.73,48a1.38,1.38,0,0,1-.49,1.13,2.08,2.08,0,0,1-1.36.4,2.47,2.47,0,0,1-1.19-.25v-.77a2.41,2.41,0,0,0,1.19.33,1.16,1.16,0,0,0,.74-.2.65.65,0,0,0,.27-.55.68.68,0,0,0-.14-.42,2.4,2.4,0,0,0-.59-.47,2.57,2.57,0,0,1-.53-.42,1.36,1.36,0,0,1-.26-.41,1.3,1.3,0,0,1-.09-.49,1.47,1.47,0,0,1,.21-.78,1.39,1.39,0,0,1,.6-.52,2,2,0,0,1,.86-.18,2.74,2.74,0,0,1,1.3.31l-.29.65a2.44,2.44,0,0,0-1-.26.86.86,0,0,0-.6.2.65.65,0,0,0-.22.52.82.82,0,0,0,.05.28.57.57,0,0,0,.16.22,3,3,0,0,0,.46.33,2.4,2.4,0,0,1,.73.64A1.25,1.25,0,0,1,430.73,48Z"/><path class="cls-7" d="M433.14,49.49a1,1,0,0,1-.92-.6h0a6,6,0,0,1-.09.63l-.32,1.59H431l1.15-5.47h.63l-.07.65h0a1.48,1.48,0,0,1,1.18-.71.9.9,0,0,1,.76.35,1.51,1.51,0,0,1,.28,1,3.49,3.49,0,0,1-.24,1.3,2.39,2.39,0,0,1-.65.95A1.42,1.42,0,0,1,433.14,49.49Zm.46-3.26a.78.78,0,0,0-.55.27,2.06,2.06,0,0,0-.45.72,2.69,2.69,0,0,0-.17.93.73.73,0,0,0,.16.51.55.55,0,0,0,.45.18.74.74,0,0,0,.54-.27,1.79,1.79,0,0,0,.4-.71,3,3,0,0,0,.15-.94C434.13,46.46,434,46.23,433.6,46.23Z"/><path class="cls-7" d="M436.24,49.42h-.81l.81-3.78h.8Zm.16-4.71a.51.51,0,0,1,.13-.37.47.47,0,0,1,.38-.14.46.46,0,0,1,.29.09.34.34,0,0,1,.11.27.52.52,0,0,1-.13.38.54.54,0,0,1-.66.05A.31.31,0,0,1,436.4,44.71Z"/><path class="cls-7" d="M438.15,49.42h-.8l1.13-5.31h.8Z"/><path class="cls-7" d="M443.9,44.22l-.4,1.25,1.38-.08,0,.7-1.25-.15.58,1.23-.7.21-.35-1.27-.78,1.07-.55-.49,1-.91-1.2-.34.25-.67,1.21.61.12-1.31Z"/><path class="cls-7" d="M446.24,47.43l-.42,2H445l1.06-5h1.15a1.81,1.81,0,0,1,1.17.32,1.2,1.2,0,0,1,.41,1,1.53,1.53,0,0,1-.3,1,1.75,1.75,0,0,1-.88.56l.85,2.16h-.89l-.7-2Zm.15-.68h.42a1.24,1.24,0,0,0,.87-.26.88.88,0,0,0,.28-.7.58.58,0,0,0-.2-.51,1,1,0,0,0-.62-.16h-.41Z"/><path class="cls-7" d="M450.64,49.49a1.38,1.38,0,0,1-1.05-.38,1.43,1.43,0,0,1-.38-1.06,3,3,0,0,1,.27-1.26,2.15,2.15,0,0,1,.72-.9,1.7,1.7,0,0,1,1-.31,1.37,1.37,0,0,1,.86.24.87.87,0,0,1,.3.71,1.09,1.09,0,0,1-.57,1,3.14,3.14,0,0,1-1.62.35H450v.2a.86.86,0,0,0,.19.6.75.75,0,0,0,.58.21,2,2,0,0,0,.48-.06,3.33,3.33,0,0,0,.58-.22v.64a3,3,0,0,1-.61.21A2.8,2.8,0,0,1,450.64,49.49Zm.52-3.3a.87.87,0,0,0-.62.3,1.63,1.63,0,0,0-.41.77h.1a2.26,2.26,0,0,0,1-.18.57.57,0,0,0,.36-.52.33.33,0,0,0-.1-.27A.48.48,0,0,0,451.16,46.19Z"/><path class="cls-7" d="M456.47,45.64l-.1.47-.66.12a1.08,1.08,0,0,1,.1.46,1.39,1.39,0,0,1-.41,1.05,1.5,1.5,0,0,1-1.09.39,1.42,1.42,0,0,1-.31,0c-.26.09-.38.21-.38.36a.19.19,0,0,0,.1.18,1.42,1.42,0,0,0,.32.07l.43,0a1.71,1.71,0,0,1,.86.3.82.82,0,0,1,.26.64,1.2,1.2,0,0,1-.51,1,2.57,2.57,0,0,1-1.47.37,2,2,0,0,1-1.08-.26.82.82,0,0,1-.38-.7.85.85,0,0,1,.24-.61,1.86,1.86,0,0,1,.76-.44.47.47,0,0,1-.26-.43.62.62,0,0,1,.16-.41,1.73,1.73,0,0,1,.5-.33,1,1,0,0,1-.46-.86,1.43,1.43,0,0,1,.42-1.08,1.49,1.49,0,0,1,1.11-.41,2.48,2.48,0,0,1,.54.06Zm-2.8,3.72a1.11,1.11,0,0,0-.58.25.56.56,0,0,0-.21.44.41.41,0,0,0,.19.36,1.11,1.11,0,0,0,.58.13,1.65,1.65,0,0,0,.87-.19.58.58,0,0,0,.32-.53.31.31,0,0,0-.16-.27,1.45,1.45,0,0,0-.54-.14Zm.93-3.25a.65.65,0,0,0-.39.13.88.88,0,0,0-.26.36,1.35,1.35,0,0,0-.09.5.51.51,0,0,0,.12.37.43.43,0,0,0,.34.14.6.6,0,0,0,.39-.14.86.86,0,0,0,.25-.36,1.44,1.44,0,0,0,.09-.51C455.05,46.27,454.9,46.11,454.6,46.11Z"/><path class="cls-7" d="M457.17,49.42h-.8l1.13-5.31h.81Z"/><path class="cls-7" d="M459.89,49.49a1.32,1.32,0,0,1-1.43-1.44,3.12,3.12,0,0,1,.26-1.26,2.32,2.32,0,0,1,.72-.9,1.73,1.73,0,0,1,1-.31,1.34,1.34,0,0,1,.85.24.85.85,0,0,1,.31.71,1.09,1.09,0,0,1-.57,1,3.14,3.14,0,0,1-1.62.35h-.15v.2a.87.87,0,0,0,.2.6.73.73,0,0,0,.57.21,2,2,0,0,0,.49-.06,3.59,3.59,0,0,0,.57-.22v.64a2.62,2.62,0,0,1-1.21.27Zm.52-3.3a.85.85,0,0,0-.62.3,1.63,1.63,0,0,0-.41.77h.09a2.31,2.31,0,0,0,1-.18.57.57,0,0,0,.36-.52.34.34,0,0,0-.11-.27A.44.44,0,0,0,460.41,46.19Z"/><path class="cls-7" d="M464.54,45.58a1.4,1.4,0,0,1,.37,0l-.18.75a1.1,1.1,0,0,0-.35,0,1,1,0,0,0-.77.38,2.3,2.3,0,0,0-.47,1l-.36,1.7H462l.81-3.78h.63l-.07.7h0a2.08,2.08,0,0,1,.56-.58A1.11,1.11,0,0,1,464.54,45.58Z"/><path class="cls-7" d="M466.71,48.23a1.36,1.36,0,0,1,.29-.87,3,3,0,0,1,1-.7,1.94,1.94,0,0,1-.3-1,1.29,1.29,0,0,1,.39-1,1.4,1.4,0,0,1,1-.36,1.25,1.25,0,0,1,.87.28.92.92,0,0,1,.31.74,1.18,1.18,0,0,1-.3.79,2.88,2.88,0,0,1-1,.65l.8,1.12a2.94,2.94,0,0,0,.62-1h.8a5,5,0,0,1-1,1.55l.7,1h-.95l-.32-.44a2.55,2.55,0,0,1-.72.39,2.47,2.47,0,0,1-.79.12,1.45,1.45,0,0,1-1-.33A1.2,1.2,0,0,1,466.71,48.23Zm1.51.59a1.44,1.44,0,0,0,.51-.09,1.91,1.91,0,0,0,.49-.28l-.9-1.3a1.89,1.89,0,0,0-.62.48.84.84,0,0,0-.17.53.65.65,0,0,0,.19.48A.71.71,0,0,0,468.22,48.82ZM469,45a.57.57,0,0,0-.45.18.73.73,0,0,0-.17.49,1.17,1.17,0,0,0,.22.68,2.61,2.61,0,0,0,.68-.45.63.63,0,0,0,.18-.43.48.48,0,0,0-.12-.35A.49.49,0,0,0,469,45Z"/><path class="cls-7" d="M473.92,49.42l-.45-3.78h.79l.19,2c0,.36.05.7.05,1h0l.24-.56c.1-.21.17-.36.22-.45l1.07-2h.85l-2,3.78Z"/><path class="cls-7" d="M477.5,49.42h-.8l.8-3.78h.81Zm.16-4.71a.51.51,0,0,1,.14-.37.46.46,0,0,1,.37-.14.49.49,0,0,1,.3.09.34.34,0,0,1,.11.27.52.52,0,0,1-.14.38.45.45,0,0,1-.36.14.49.49,0,0,1-.3-.09A.31.31,0,0,1,477.66,44.71Z"/><path class="cls-7" d="M479.42,49.42h-.8l1.13-5.31h.8Z"/><path class="cls-7" d="M483.42,45.64h.93L482.7,47.3l1,2.12h-.89l-.72-1.6-.46.32-.27,1.28h-.8l1.12-5.31h.81c-.31,1.42-.49,2.26-.55,2.49s-.12.49-.2.77h0Z"/><path class="cls-7" d="M485.44,49.49a.93.93,0,0,1-.76-.34,1.59,1.59,0,0,1-.28-1,3.44,3.44,0,0,1,.24-1.29,2.39,2.39,0,0,1,.65-1,1.38,1.38,0,0,1,.92-.35,1.05,1.05,0,0,1,.57.15,1,1,0,0,1,.37.45h0l.21-.54H488l-.8,3.78h-.62l.07-.6h0A1.53,1.53,0,0,1,485.44,49.49Zm.3-.65a.78.78,0,0,0,.55-.26,1.91,1.91,0,0,0,.44-.71,2.58,2.58,0,0,0,.18-1,.78.78,0,0,0-.16-.49.54.54,0,0,0-.42-.18.77.77,0,0,0-.55.26,1.92,1.92,0,0,0-.41.72,3,3,0,0,0-.16.94.83.83,0,0,0,.14.52A.46.46,0,0,0,485.74,48.84Zm1.72-4.43a.75.75,0,0,1-.23.57.84.84,0,0,1-.59.21.81.81,0,0,1-.58-.21.75.75,0,0,1-.21-.56.73.73,0,0,1,.22-.56.8.8,0,0,1,.57-.21.84.84,0,0,1,.59.21A.7.7,0,0,1,487.46,44.41Zm-.45,0a.41.41,0,0,0-.1-.27.4.4,0,0,0-.27-.09.33.33,0,0,0-.35.36.36.36,0,0,0,.09.26.36.36,0,0,0,.26.1.41.41,0,0,0,.27-.1A.36.36,0,0,0,487,44.42Z"/><path class="cls-7" d="M490.86,45.58a1.4,1.4,0,0,1,.37,0l-.18.75a1.1,1.1,0,0,0-.35,0,1,1,0,0,0-.77.38,2.3,2.3,0,0,0-.47,1l-.36,1.7h-.81l.81-3.78h.63l-.07.7h0a2,2,0,0,1,.57-.58A1.11,1.11,0,0,1,490.86,45.58Z"/><path class="cls-7" d="M496.72,45.64l-.11.47-.66.12a1,1,0,0,1,.1.46,1.39,1.39,0,0,1-.41,1.05,1.5,1.5,0,0,1-1.09.39,1.42,1.42,0,0,1-.31,0c-.25.09-.38.21-.38.36a.18.18,0,0,0,.11.18,1.31,1.31,0,0,0,.31.07l.43,0a1.79,1.79,0,0,1,.87.3.81.81,0,0,1,.25.64,1.2,1.2,0,0,1-.51,1,2.55,2.55,0,0,1-1.47.37,1.9,1.9,0,0,1-1.07-.26.79.79,0,0,1-.38-.7.89.89,0,0,1,.23-.61,1.9,1.9,0,0,1,.77-.44.46.46,0,0,1-.26-.43.57.57,0,0,1,.16-.41,1.49,1.49,0,0,1,.5-.33.93.93,0,0,1-.46-.86,1.46,1.46,0,0,1,.41-1.08,1.49,1.49,0,0,1,1.11-.41,2.64,2.64,0,0,1,.55.06Zm-2.8,3.72a1.15,1.15,0,0,0-.59.25.56.56,0,0,0-.21.44.44.44,0,0,0,.19.36,1.11,1.11,0,0,0,.58.13,1.65,1.65,0,0,0,.87-.19.58.58,0,0,0,.32-.53.31.31,0,0,0-.16-.27,1.45,1.45,0,0,0-.53-.14Zm.92-3.25a.65.65,0,0,0-.39.13.88.88,0,0,0-.26.36,1.35,1.35,0,0,0-.09.5.51.51,0,0,0,.12.37.45.45,0,0,0,.35.14.59.59,0,0,0,.38-.14.86.86,0,0,0,.25-.36,1.44,1.44,0,0,0,.09-.51C495.29,46.27,495.14,46.11,494.84,46.11Z"/><path class="cls-7" d="M500.51,49.49a1.1,1.1,0,0,1-1-.47l-.08.4h-.52l.07-.6h0a2,2,0,0,1-.56.52,1.24,1.24,0,0,1-.6.15.82.82,0,0,1-.71-.35,1.55,1.55,0,0,1-.26-1,3.65,3.65,0,0,1,.23-1.29,2.4,2.4,0,0,1,.65-1,1.34,1.34,0,0,1,.89-.34,1,1,0,0,1,.52.14,1.25,1.25,0,0,1,.37.46h0l.21-.54h.51l-.09.4a1.41,1.41,0,0,1,.45-.34,1.52,1.52,0,0,1,.62-.12,1,1,0,0,1,.75.26.9.9,0,0,1,.27.69,1.1,1.1,0,0,1-.56,1,3.16,3.16,0,0,1-1.63.35h-.15v.2a.86.86,0,0,0,.2.61.81.81,0,0,0,.6.2,2.57,2.57,0,0,0,1.05-.28v.64A2.88,2.88,0,0,1,500.51,49.49Zm-2.46-.65a.78.78,0,0,0,.55-.27,2,2,0,0,0,.43-.74,2.69,2.69,0,0,0,.16-.91.84.84,0,0,0-.13-.5.44.44,0,0,0-.39-.19.72.72,0,0,0-.54.28,1.91,1.91,0,0,0-.4.72,3.16,3.16,0,0,0-.14.92.86.86,0,0,0,.13.53A.38.38,0,0,0,498.05,48.84Zm3-2.65a.88.88,0,0,0-.64.3,1.56,1.56,0,0,0-.42.77h.11a2.29,2.29,0,0,0,1-.18.56.56,0,0,0,.36-.51.34.34,0,0,0-.12-.29A.44.44,0,0,0,501,46.19Z"/><path class="cls-7" d="M503.32,49.42h-.8l1.13-5.31h.8Z"/><path class="cls-7" d="M506.41,45.58a1,1,0,0,1,.92.6h0a5.67,5.67,0,0,1,.13-.85l.26-1.22h.8l-1.13,5.31h-.63l.06-.6h0a2.07,2.07,0,0,1-.58.52,1.27,1.27,0,0,1-.6.15.91.91,0,0,1-.76-.34,1.54,1.54,0,0,1-.28-1,3.39,3.39,0,0,1,.25-1.31,2.29,2.29,0,0,1,.65-.94A1.42,1.42,0,0,1,506.41,45.58ZM506,48.84a.79.79,0,0,0,.56-.28,2,2,0,0,0,.44-.73,2.61,2.61,0,0,0,.16-.91.78.78,0,0,0-.15-.5.52.52,0,0,0-.45-.19.77.77,0,0,0-.54.26,1.88,1.88,0,0,0-.4.73,2.67,2.67,0,0,0-.15.93C505.42,48.61,505.59,48.84,506,48.84Z"/><path class="cls-7" d="M510.12,49.49a1.3,1.3,0,0,1-1.42-1.44,3,3,0,0,1,.26-1.26,2.32,2.32,0,0,1,.72-.9,1.72,1.72,0,0,1,1-.31,1.37,1.37,0,0,1,.86.24.87.87,0,0,1,.3.71,1.08,1.08,0,0,1-.56,1,3.16,3.16,0,0,1-1.63.35h-.14v.2a.86.86,0,0,0,.19.6.75.75,0,0,0,.58.21,2.05,2.05,0,0,0,.49-.06,3.59,3.59,0,0,0,.57-.22v.64a3.1,3.1,0,0,1-.6.21A3,3,0,0,1,510.12,49.49Zm.52-3.3a.85.85,0,0,0-.61.3,1.64,1.64,0,0,0-.42.77h.1a2.34,2.34,0,0,0,1-.18.57.57,0,0,0,.36-.52.34.34,0,0,0-.11-.27A.45.45,0,0,0,510.64,46.19Z"/><path class="cls-7" d="M514.77,45.58a1.31,1.31,0,0,1,.37,0l-.17.75a1.1,1.1,0,0,0-.35,0,1,1,0,0,0-.77.38,2.3,2.3,0,0,0-.47,1l-.36,1.7h-.81l.81-3.78h.63l-.08.7h0a2,2,0,0,1,.57-.58A1.11,1.11,0,0,1,514.77,45.58Z"/><path class="cls-7" d="M515,49.1a.57.57,0,0,1,.61-.62.4.4,0,0,1,.42.43.63.63,0,0,1-.16.44.58.58,0,0,1-.43.17.42.42,0,0,1-.33-.12A.44.44,0,0,1,515,49.1Z"/></svg>
